<?xml version="1.0" encoding="UTF-8" standalone="no"?>
<!-- Created with Inkscape (http://www.inkscape.org/) -->

<svg
   xmlns:dc="http://purl.org/dc/elements/1.1/"
   xmlns:cc="http://creativecommons.org/ns#"
   xmlns:rdf="http://www.w3.org/1999/02/22-rdf-syntax-ns#"
   xmlns:svg="http://www.w3.org/2000/svg"
   xmlns="http://www.w3.org/2000/svg"
   xmlns:xlink="http://www.w3.org/1999/xlink"
   xmlns:sodipodi="http://sodipodi.sourceforge.net/DTD/sodipodi-0.dtd"
   xmlns:inkscape="http://www.inkscape.org/namespaces/inkscape"
   width="1000"
   height="1000"
   viewBox="0 0 264.58333 264.58334"
   version="1.1"
   id="svg1004"
   inkscape:export-filename="C:\Users\mojopixie\Desktop\edith\assets\img\logo\icon.png"
   inkscape:export-xdpi="96"
   inkscape:export-ydpi="96"
   inkscape:version="0.92.4 (5da689c313, 2019-01-14)"
   sodipodi:docname="icon.svg">
  <defs
     id="defs998">
    <linearGradient
       inkscape:collect="always"
       id="linearGradient862">
      <stop
         style="stop-color:#d9ebf7;stop-opacity:1;"
         offset="0"
         id="stop858" />
      <stop
         style="stop-color:#d9ebf7;stop-opacity:0;"
         offset="1"
         id="stop860" />
    </linearGradient>
    <linearGradient
       inkscape:collect="always"
       id="linearGradient903">
      <stop
         style="stop-color:#b3d7ef;stop-opacity:1;"
         offset="0"
         id="stop899" />
      <stop
         style="stop-color:#b3d7ef;stop-opacity:0;"
         offset="1"
         id="stop901" />
    </linearGradient>
    <linearGradient
       inkscape:collect="always"
       xlink:href="#linearGradient903"
       id="linearGradient905"
       x1="-56.894869"
       y1="148.83333"
       x2="208.08536"
       y2="148.83333"
       gradientUnits="userSpaceOnUse"
       gradientTransform="rotate(-90.332326,111.83505,128.58658)" />
    <linearGradient
       inkscape:collect="always"
       xlink:href="#linearGradient862"
       id="linearGradient864"
       x1="123.18853"
       y1="448.94641"
       x2="384.05551"
       y2="448.94641"
       gradientUnits="userSpaceOnUse"
       gradientTransform="translate(-121.33035,-284.23809)" />
  </defs>
  <sodipodi:namedview
     id="base"
     pagecolor="#ffffff"
     bordercolor="#666666"
     borderopacity="1.0"
     inkscape:pageopacity="0.0"
     inkscape:pageshadow="2"
     inkscape:zoom="0.7"
     inkscape:cx="632.133"
     inkscape:cy="606.59271"
     inkscape:document-units="px"
     inkscape:current-layer="layer1"
     showgrid="false"
     units="px"
     inkscape:pagecheckerboard="true"
     inkscape:window-width="1920"
     inkscape:window-height="1027"
     inkscape:window-x="-8"
     inkscape:window-y="-8"
     inkscape:window-maximized="1"
     showguides="false" />
  <metadata
     id="metadata1001">
    <rdf:RDF>
      <cc:Work
         rdf:about="">
        <dc:format>image/svg+xml</dc:format>
        <dc:type
           rdf:resource="http://purl.org/dc/dcmitype/StillImage" />
        <dc:title></dc:title>
      </cc:Work>
    </rdf:RDF>
  </metadata>
  <g
     inkscape:label="Layer 1"
     inkscape:groupmode="layer"
     id="layer1"
     transform="translate(0,-32.416659)">
    <g
       id="g1011">
      <g
         id="g1000">
        <path
           id="path924"
           d="M 262.88222,164.70833 A 130.59055,130.59055 0 0 1 132.29167,295.29887 130.59055,130.59055 0 0 1 1.7011261,164.70833 130.59055,130.59055 0 0 1 132.29167,34.117783 130.59055,130.59055 0 0 1 262.88222,164.70833 Z"
           style="opacity:1;fill:#fcf5db;fill-opacity:1;fill-rule:nonzero;stroke:#e3b40f;stroke-width:2.26832199;stroke-linecap:square;stroke-linejoin:round;stroke-miterlimit:4;stroke-dasharray:none;stroke-opacity:1;paint-order:fill markers stroke"
           inkscape:connector-curvature="0" />
        <g
           transform="matrix(1.7203232,-1.98681,1.8116748,1.4844623,-97.954209,-156.85733)"
           id="g924"
           style="fill:#2376ad;fill-opacity:1">
          <g
             id="text839"
             style="font-style:normal;font-variant:normal;font-weight:normal;font-stretch:normal;font-size:50.79999924px;line-height:1.25;font-family:'Henny Penny';-inkscape-font-specification:'Henny Penny';letter-spacing:0px;word-spacing:0px;fill:#2376ad;fill-opacity:1;stroke:#000000;stroke-width:0.99770772;stroke-miterlimit:4;stroke-dasharray:none;stroke-opacity:1"
             aria-label="E"
             transform="translate(-83.609385,-91.858245)">
            <path
               inkscape:connector-curvature="0"
               id="path826"
               style="fill:#2376ad;fill-opacity:1;stroke-width:0.99770772;stroke-miterlimit:4;stroke-dasharray:none"
               d="m 25.708309,233.71861 q 0.387574,0 0.516765,0.18086 0.155029,0.18087 0.155029,0.54261 0,0.46508 -0.07751,1.05936 -0.05168,0.59428 -0.129191,1.49862 -0.07751,0.8785 -0.155029,2.14457 -0.05168,1.24024 -0.05168,3.02307 0,0.3359 -0.103352,0.59428 -0.103353,0.25838 -0.387574,0.25838 -0.413411,0 -0.56844,-0.85266 -0.129192,-0.5426 -0.232544,-1.36942 -0.07751,-0.85266 -0.258383,-2.06706 -0.129191,-0.98185 -0.439249,-1.52445 -0.284221,-0.54261 -0.72347,-0.80099 -0.413412,-0.25838 -0.904338,-0.31006 -0.490926,-0.0517 -0.981852,-0.0517 -1.007691,0 -2.32544,0.10335 -1.291911,0.0775 -2.532145,0.2067 -1.240234,0.10336 -2.247925,0.23255 -0.981852,0.12919 -1.369425,0.23254 -0.826823,0.20671 -1.033529,0.69763 -0.180867,0.46509 -0.180867,1.11105 0,0.56844 0.02584,1.65364 0.02584,1.05937 0.07751,2.45463 0.05168,1.36943 0.129192,2.9714 0.07751,1.57613 0.129191,3.1781 0.07751,1.60197 0.129191,3.10059 0.07751,1.49861 0.129191,2.68717 0.568441,0.0775 1.291911,0.15503 0.749308,0.0517 1.472778,0.0517 0.852661,0 1.421102,-0.10336 0.594279,-0.12919 0.981852,-0.33589 0.413412,-0.20671 0.645956,-0.49093 0.232543,-0.31006 0.387573,-0.67179 0.155029,-0.38758 0.206706,-0.74931 0.07751,-0.36174 0.155029,-0.82682 0.07751,-0.49093 0.232544,-0.64596 0.155029,-0.15503 0.310058,-0.15503 0.361735,0 0.361735,0.64596 0,0.56844 -0.07751,1.39526 -0.05168,0.82682 -0.129191,1.73116 -0.07752,0.90434 -0.15503,1.83451 -0.05168,0.93018 -0.05168,1.70533 0,0.69763 0,1.39526 0.02584,0.69763 0.05168,1.29191 0.02584,0.59428 0.02584,1.05937 0.02584,0.46509 0.02584,0.69763 0,0.36173 -0.15503,0.69763 -0.129191,0.31006 -0.490926,0.31006 -0.594279,0 -0.671793,-1.05937 -0.02584,-0.25838 -0.05168,-0.72347 0,-0.46509 -0.02584,-0.98185 -0.02584,-0.51676 -0.103353,-1.03353 -0.05168,-0.51676 -0.155029,-0.8785 -0.129191,-0.43925 -0.465088,-0.85266 -0.335897,-0.43925 -1.059367,-0.67179 -0.310058,-0.10336 -0.775146,-0.18087 -0.43925,-0.0775 -0.981853,-0.12919 -0.516764,-0.0517 -1.085205,-0.0775 -0.542602,-0.0517 -1.033528,-0.0775 0.07751,1.29191 0.180867,3.20394 0.129191,1.88619 0.258382,4.00492 0.15503,2.0929 0.310059,4.23747 0.155029,2.14457 0.28422,3.92741 0.129191,1.78284 0.206706,3.02307 0.103353,1.2144 0.155029,1.49862 0.103353,1.05936 0.542603,1.55029 0.43925,0.49093 1.395264,0.62012 1.033528,0.15503 2.506307,0.15503 1.963704,0 3.462321,-0.20671 1.498616,-0.20671 2.60966,-0.72347 1.111043,-0.51676 1.886189,-1.39526 0.775147,-0.85266 1.291911,-2.17041 0.284221,-0.69764 0.465088,-1.36943 0.206706,-0.69763 0.335897,-1.24023 0.155029,-0.54261 0.28422,-0.8785 0.129191,-0.3359 0.284221,-0.3359 0.206705,0 0.28422,0.49093 0.103353,0.46508 0.103353,1.11104 0,0.93018 -0.103353,2.06706 -0.07751,1.11104 -0.232544,2.19625 -0.155029,1.0852 -0.361735,2.01538 -0.180867,0.93017 -0.361735,1.44694 -0.335897,0.82682 -0.904338,1.13688 -0.56844,0.3359 -1.524454,0.3359 -0.826823,0 -2.247925,-0.15503 -1.421102,-0.1292 -3.281454,-0.3359 -1.834513,-0.18087 -3.979085,-0.38757 -2.118734,-0.20671 -4.366659,-0.3359 -1.73116,-0.10335 -3.3072915,-0.15503 -1.550293,-0.0517 -2.8422038,-0.0775 -1.2919108,-0.0258 -2.2479249,-0.0258 -0.956014,0 -1.4986165,0 -0.7234701,0 -0.9560141,-0.20671 -0.20670569,-0.18087 -0.20670569,-0.49093 0,-0.38757 0.28422039,-0.5426 0.2842204,-0.15503 0.7234701,-0.15503 0.2842203,0 0.956014,0.0517 0.6976318,0.0775 1.6794841,0.0775 0.3358968,0 0.6717936,-0.0258 0.361735,0 0.7751465,-0.0517 0.9301758,-0.0258 1.4211019,-0.3359 0.5167644,-0.28422 0.7493083,-0.69763 0.232544,-0.38757 0.2583822,-0.82682 0.051676,-0.43925 0.051676,-0.77515 -0.051676,-2.50631 -0.2842204,-5.34851 -0.2067057,-2.86804 -0.4650879,-5.58105 -0.2325439,-2.71302 -0.4909261,-4.98678 -0.2325439,-2.27376 -0.361735,-3.61735 -0.077515,-0.8785 -0.2067058,-2.0929 -0.129191,-1.24023 -0.3100586,-2.63549 -0.1550293,-1.39527 -0.361735,-2.84221 -0.1808675,-1.47278 -0.3875732,-2.8422 -0.1808676,-1.39527 -0.3875733,-2.58382 -0.1808675,-1.18856 -0.3358968,-2.01538 -0.2067057,-1.00769 -0.4650879,-1.73116 -0.232544,-0.72348 -0.5167643,-1.26608 -0.2842204,-0.5426 -0.6201172,-0.93017 -0.3100586,-0.38758 -0.6976319,-0.6718 -0.2842204,-0.23254 -0.6717936,-0.43925 -0.3875733,-0.23254 -0.7493083,-0.43925 -0.33589684,-0.2067 -0.56844079,-0.38757 -0.23254395,-0.20671 -0.23254395,-0.43925 0,-0.41341 0.69763185,-0.41341 0.36173499,0 1.00769049,0.10335 0.6459554,0.0775 1.6019694,0.18087 0.9818522,0.10335 2.2996013,0.20671 1.3435873,0.0775 3.0747478,0.0775 1.3435876,0 3.0230716,-0.12919 1.679484,-0.15503 3.436483,-0.3359 1.782837,-0.2067 3.513997,-0.43925 1.731161,-0.25838 3.152263,-0.43925 1.421102,-0.2067 2.377116,-0.33589 0.981852,-0.15503 1.240234,-0.15503 z" />
          </g>
          <g
             id="text877"
             style="font-style:normal;font-variant:normal;font-weight:normal;font-stretch:normal;font-size:50.79999924px;line-height:1.25;font-family:'Henny Penny';-inkscape-font-specification:'Henny Penny';letter-spacing:0px;word-spacing:0px;fill:#2376ad;fill-opacity:1;stroke:#000000;stroke-width:0.99770772;stroke-miterlimit:4;stroke-dasharray:none;stroke-opacity:1"
             aria-label=" F"
             transform="translate(-83.609385,-91.858245)">
            <path
               inkscape:connector-curvature="0"
               id="path829"
               style="fill:#2376ad;fill-opacity:1;stroke:#000000;stroke-width:0.99770772;stroke-miterlimit:4;stroke-dasharray:none;stroke-opacity:1"
               d="m 88.509001,237.477 q 0.570508,0 0.942578,0.34726 0.396875,0.32247 0.396875,1.26504 0,0.66973 -0.173633,1.76114 -0.173633,1.0666 -0.396875,2.158 -0.223242,1.09141 -0.446484,2.00918 -0.198438,0.89297 -0.272852,1.24024 -0.04961,0.22324 -0.198437,0.76894 -0.124024,0.54571 -0.347266,1.21543 -0.198437,0.66973 -0.446484,1.38907 -0.223243,0.71933 -0.471289,1.31464 -0.248047,0.59532 -0.496094,0.99219 -0.223242,0.37207 -0.42168,0.37207 -0.124023,0 -0.223242,-0.12402 -0.07441,-0.12402 -0.07441,-0.5457 0,-0.42168 0.07441,-1.16582 0.07441,-0.76895 0.148828,-1.68672 0.07441,-0.94258 0.148828,-1.93477 0.07441,-1.01699 0.07441,-1.90996 0,-1.36426 -0.297656,-2.1332 -0.272852,-0.79375 -0.818555,-1.19063 -0.520898,-0.42168 -1.289843,-0.5209 -0.744141,-0.12402 -1.661914,-0.12402 -1.21543,0 -2.703711,0.17363 -1.463477,0.14883 -2.778125,0.4961 -1.091406,0.27285 -1.438672,0.94257 -0.322461,0.66973 -0.322461,1.73633 0,0.17364 0.02481,1.38907 0.0248,1.21543 0.07441,3.12539 0.04961,1.90996 0.09922,4.39043 0.07442,2.45566 0.148829,5.10976 0.694531,-0.0496 1.413867,-0.12402 0.719336,-0.0992 1.215429,-0.32246 0.520899,-0.22325 0.868164,-0.57051 0.372071,-0.37207 0.595313,-0.76895 0.223242,-0.42168 0.347266,-0.84336 0.148828,-0.42168 0.223242,-0.76894 0.396875,-1.5875 0.620117,-2.23242 0.223242,-0.66973 0.595312,-0.66973 0.471289,0 0.471289,0.91777 0,0.44649 -0.09922,1.06661 -0.09922,0.62011 -0.248047,1.41386 -0.124024,0.76895 -0.223242,1.71153 -0.09922,0.94257 -0.09922,2.00918 0,0.96738 0.02481,1.98437 0.04961,1.01699 0.09922,1.88516 0.04961,0.86816 0.07441,1.56269 0.04961,0.66973 0.04961,0.96739 0,0.84335 -0.173633,1.26503 -0.148828,0.42168 -0.42168,0.42168 -0.297656,0 -0.496093,-0.44648 -0.198438,-0.47129 -0.223243,-1.78594 -0.0248,-0.96738 -0.124023,-1.76113 -0.07441,-0.81856 -0.322461,-1.41387 -0.223242,-0.62012 -0.644922,-1.01699 -0.42168,-0.42168 -1.091406,-0.64492 -0.42168,-0.12403 -1.091406,-0.14883 -0.644922,-0.0496 -1.289844,-0.0496 0.07441,2.6541 0.148828,5.2834 0.09922,2.6293 0.173633,4.88652 0.07441,2.23242 0.148828,3.91914 0.07441,1.68672 0.124023,2.45567 0.07442,1.19062 0.297657,1.93476 0.223242,0.71934 0.595312,1.16582 0.37207,0.44649 0.868164,0.66973 0.496094,0.22324 1.141016,0.39687 0.223242,0.0744 0.496094,0.12403 0.272851,0.0496 0.520898,0.14883 0.272852,0.0992 0.446484,0.22324 0.173633,0.14883 0.173633,0.37207 0,0.22324 -0.148828,0.34726 -0.124023,0.12403 -0.347266,0.17364 -0.198437,0.0744 -0.446484,0.0744 -0.223242,0.0248 -0.446484,0.0248 -0.372071,0 -1.041797,-0.0992 -0.669727,-0.0744 -1.537891,-0.17364 -0.868164,-0.0744 -1.860351,-0.17363 -0.992188,-0.0744 -2.00918,-0.0744 -0.917773,0 -1.761133,0.0496 -0.843359,0.0744 -1.736328,0.14882 -0.892969,0.0992 -1.860351,0.14883 -0.967383,0.0744 -2.108399,0.0744 -0.694531,0 -1.116211,-0.0744 -0.421679,-0.0744 -0.644922,-0.19843 -0.223242,-0.0992 -0.297656,-0.24805 -0.07441,-0.14883 -0.07441,-0.29766 0,-0.57051 0.917774,-0.71933 0.223242,-0.0248 0.719335,-0.0744 0.496094,-0.0248 1.091407,-0.0744 0.620117,-0.0496 1.265039,-0.14883 0.644922,-0.0744 1.141015,-0.19844 0.520899,-0.14883 1.041797,-0.39687 0.520899,-0.27285 0.917774,-0.71934 0.396875,-0.47129 0.644922,-1.21543 0.248046,-0.76894 0.248046,-1.93476 0,-1.98438 -0.173632,-4.56407 -0.148829,-2.57968 -0.42168,-5.35781 -0.248047,-2.80293 -0.595313,-5.60586 -0.322461,-2.82773 -0.694531,-5.33301 -0.347265,-2.53007 -0.694531,-4.51445 -0.347266,-2.00918 -0.620117,-3.175 -0.223242,-0.94258 -0.644922,-1.51308 -0.42168,-0.59532 -0.967383,-0.91778 -0.520898,-0.34726 -1.16582,-0.49609 -0.620117,-0.17363 -1.289844,-0.27285 -0.719336,-0.12403 -1.16582,-0.32246 -0.42168,-0.19844 -0.42168,-0.64493 0,-0.42168 0.322461,-0.5705 0.347266,-0.14883 0.818555,-0.14883 2.108398,0 5.283398,-0.29766 3.175,-0.29765 7.193359,-1.21543 3.100586,-0.69453 5.18418,-1.31465 2.108398,-0.62011 3.522266,-1.0666 1.413867,-0.44648 2.306835,-0.69453 0.917774,-0.27285 1.63711,-0.27285 z" />
          </g>
          <g
             id="text885"
             style="font-style:normal;font-variant:normal;font-weight:normal;font-stretch:normal;font-size:50.79999924px;line-height:1.25;font-family:'Henny Penny';-inkscape-font-specification:'Henny Penny';letter-spacing:0px;word-spacing:0px;fill:#2376ad;fill-opacity:1;stroke:#000000;stroke-width:0.99770772;stroke-miterlimit:4;stroke-dasharray:none;stroke-opacity:1"
             aria-label="H"
             transform="translate(-83.609385,-91.858245)">
            <path
               inkscape:connector-curvature="0"
               id="path832"
               style="fill:#2376ad;fill-opacity:1;stroke:#000000;stroke-width:0.99770772;stroke-miterlimit:4;stroke-dasharray:none;stroke-opacity:1"
               d="m 30.058572,232.16055 q 0.446484,0 1.16582,0.24804 0.744141,0.24805 1.736328,0.62012 1.016992,0.34727 2.257227,0.74414 1.265039,0.37207 2.728515,0.66973 1.438672,0.29766 3.026172,0.49609 1.612305,0.17364 3.026172,0.29766 1.413867,0.0992 2.480468,0.17363 1.091407,0.0744 1.463477,0.0992 0.347266,0.0496 0.545703,0.14883 0.223242,0.0744 0.223242,0.32246 0,0.27285 -0.223242,0.37207 -0.223242,0.0744 -0.496094,0.0744 -0.545703,0 -1.612304,-0.0744 -1.041797,-0.0744 -2.207617,-0.0744 -0.868164,0 -1.537891,0.17363 -0.644922,0.14883 -1.091406,0.5209 -0.42168,0.37207 -0.669727,0.99218 -0.248047,0.59532 -0.297656,1.51309 -0.04961,0.5209 -0.07441,1.36426 0,0.81855 -0.02481,1.83554 0,1.017 0,2.18282 0,1.14101 0,2.33164 0,1.43867 0,2.80293 0,1.36426 0,2.50527 0,1.14102 0,1.93477 0.02481,0.79375 0.04961,1.0914 0.0248,0.64492 0.148828,1.0418 0.124023,0.39687 0.347265,0.62012 0.223242,0.22324 0.520899,0.29765 0.297656,0.0744 0.669726,0.0744 0.694532,0 1.686719,-0.0496 0.992187,-0.0744 2.108398,-0.17364 1.141016,-0.0992 2.282032,-0.22324 1.141015,-0.14883 2.108398,-0.24804 0.992188,-0.12403 1.736328,-0.22325 0.744141,-0.0992 1.041797,-0.14882 0.843359,-0.14883 1.339453,-0.57051 0.496094,-0.42168 0.719336,-1.01699 0.248047,-0.59532 0.297656,-1.33946 0.07441,-0.76894 0.07441,-1.5875 0,-1.11621 -0.09922,-2.28203 -0.07441,-1.19062 -0.198438,-2.25723 -0.124023,-1.0666 -0.272851,-1.93476 -0.124024,-0.86816 -0.198438,-1.31465 -0.148828,-0.96738 -0.446484,-1.48828 -0.297657,-0.5457 -0.669727,-0.79375 -0.347266,-0.27285 -0.744141,-0.32246 -0.37207,-0.0744 -0.669726,-0.0744 -0.843359,0 -1.736328,0.0496 -0.868164,0.0496 -1.364258,0.0496 -0.496094,0 -0.768945,-0.19843 -0.248047,-0.19844 -0.248047,-0.5209 0,-0.27285 0.198437,-0.5209 0.223243,-0.24805 1.016993,-0.29766 0.74414,-0.0248 1.661914,-0.0744 0.942578,-0.0744 1.95957,-0.17363 1.041797,-0.12403 2.108398,-0.27286 1.066602,-0.14882 2.108399,-0.37207 0.942578,-0.22324 2.009179,-0.52089 1.091407,-0.32247 2.108399,-0.59532 1.041797,-0.29765 1.934765,-0.49609 0.892969,-0.22324 1.463477,-0.22324 0.570508,0 0.719336,0.17363 0.148828,0.17363 0.148828,0.37207 0,0.34727 -0.297656,0.49609 -0.272852,0.12403 -0.620117,0.12403 -0.173633,0 -0.47129,0.0248 -0.297656,0.0248 -0.620117,0.0992 -0.322461,0.0496 -0.644922,0.14883 -0.322461,0.0992 -0.545703,0.27285 -0.396875,0.32246 -0.74414,0.89297 -0.322461,0.5457 -0.496094,1.66191 -0.124023,0.89297 -0.198438,2.25723 -0.04961,1.33945 -0.09922,2.82773 -0.04961,1.48829 -0.09922,2.97657 -0.02481,1.48828 -0.04961,2.6541 -0.02481,0.59531 -0.07441,1.76113 -0.02481,1.14102 -0.04961,2.6541 -0.02481,1.48828 -0.07441,3.27422 -0.02481,1.76113 -0.04961,3.59668 -0.02481,1.81074 -0.04961,3.64629 0,1.81074 0,3.39824 0,1.33946 0,2.45567 0,1.11621 0.04961,1.90996 0.0248,0.79375 0.198437,1.31465 0.198438,0.49609 0.446485,0.79375 0.248046,0.32246 0.520898,0.47128 0.297656,0.17364 0.545703,0.27286 0.545703,0.19843 1.16582,0.29765 0.620118,0.0992 1.339454,0.27285 0.347265,0.0744 0.446484,0.17364 0.09922,0.12402 0.09922,0.27285 0,0.0496 -0.02481,0.12402 -0.02481,0.0992 -0.124023,0.17363 -0.07442,0.0744 -0.272852,0.12403 -0.198438,0.0496 -0.545703,0.0496 -0.297656,0 -1.066602,-0.0744 -0.74414,-0.0496 -1.686718,-0.14883 -0.942579,-0.0744 -1.934766,-0.14882 -0.992188,-0.0496 -1.761133,-0.0496 -1.016992,0 -2.009179,0.0744 -0.992188,0.0992 -1.885157,0.19844 -0.892968,0.12402 -1.686718,0.19844 -0.79375,0.0992 -1.413868,0.0992 -1.041796,0 -1.339453,-0.27286 -0.297656,-0.24804 -0.297656,-0.5457 0,-0.39687 0.297656,-0.5209 0.322461,-0.0992 0.768946,-0.0992 1.413867,-0.0496 2.356445,-0.14882 0.967383,-0.0744 1.810742,-0.44649 0.620117,-0.29766 0.992188,-0.71934 0.396875,-0.39687 0.570507,-0.86816 0.198438,-0.49609 0.248047,-0.99219 0.07441,-0.52089 0.07441,-0.99218 0,-0.37207 -0.04961,-1.33946 -0.04961,-0.96738 -0.148828,-2.25722 -0.07441,-1.31465 -0.198438,-2.77813 -0.09922,-1.48828 -0.223242,-2.87734 -0.124023,-1.41387 -0.248047,-2.57969 -0.09922,-1.16582 -0.198437,-1.83555 -0.124024,-0.74414 -0.322461,-1.16582 -0.173633,-0.44648 -0.446485,-0.66972 -0.248046,-0.22325 -0.595312,-0.27286 -0.347266,-0.0744 -0.768945,-0.0744 -0.446485,0 -1.364258,0.0744 -0.892969,0.0744 -2.033985,0.19844 -1.11621,0.0992 -2.356445,0.24805 -1.215429,0.14883 -2.306836,0.29766 -1.066601,0.14882 -1.909961,0.29765 -0.843359,0.14883 -1.16582,0.27285 -0.471289,0.14883 -0.744141,0.39688 -0.272851,0.24805 -0.396875,0.5457 -0.124023,0.27285 -0.173632,0.59531 -0.02481,0.29766 -0.04961,0.59532 0,0.71933 0,1.95957 0.02481,1.24023 0.02481,2.75332 0.02481,1.48828 0.04961,3.15019 0.02481,1.63711 0.02481,3.175 0.02481,1.53789 0.02481,2.85254 0.0248,1.28984 0.0248,2.1084 0,1.16582 0.148829,1.88516 0.148828,0.71933 0.396875,1.14101 0.248046,0.44649 0.595312,0.69453 0.347266,0.27285 0.744141,0.4961 0.421679,0.22324 0.79375,0.39687 0.37207,0.19844 0.37207,0.5209 0,0.19844 -0.173633,0.27285 -0.148828,0.0744 -0.37207,0.0744 -0.520899,0 -1.091406,-0.14883 -0.545704,-0.14883 -1.289844,-0.32246 -0.744141,-0.14883 -1.785938,-0.29766 -1.016992,-0.14883 -2.455664,-0.14883 -1.488281,0 -2.75332,0.17363 -1.240234,0.17364 -2.232422,0.37208 -0.992187,0.22324 -1.711523,0.39687 -0.719336,0.17363 -1.16582,0.17363 -0.917774,0 -0.917774,-0.64492 0,-0.39687 0.198438,-0.57051 0.223242,-0.17363 0.570507,-0.29765 0.148829,-0.0496 0.496094,-0.12403 0.347266,-0.0744 0.818555,-0.17363 0.496094,-0.0744 1.066601,-0.19844 0.570508,-0.12402 1.165821,-0.27285 0.79375,-0.19844 1.240234,-0.5457 0.446484,-0.34727 0.644922,-0.79375 0.223242,-0.42168 0.272851,-0.91777 0.04961,-0.4961 0.07442,-0.99219 0,-0.14883 0.0248,-1.01699 0.02481,-0.84336 0.07441,-2.13321 0.04961,-1.31465 0.09922,-2.97656 0.04961,-1.68672 0.09922,-3.47266 0.04961,-1.81074 0.07441,-3.59668 0.02481,-1.81074 0.04961,-3.42304 0,-0.37207 0,-1.21543 0.02481,-0.86817 0.02481,-2.05879 0,-1.19063 0,-2.6541 0.02481,-1.46348 0.02481,-3.05098 0,-2.1084 -0.02481,-4.29121 0,-2.18281 -0.04961,-4.06797 -0.02481,-1.90996 -0.09922,-3.34863 -0.04961,-1.43867 -0.148828,-2.05879 -0.09922,-0.71934 -0.272852,-1.26504 -0.173633,-0.57051 -0.471289,-1.01699 -0.297656,-0.44649 -0.719336,-0.81856 -0.396875,-0.37207 -0.967383,-0.71933 -0.545703,-0.32246 -1.041797,-0.57051 -0.496093,-0.24805 -0.892968,-0.44648 -0.372071,-0.19844 -0.595313,-0.39688 -0.223242,-0.22324 -0.223242,-0.47129 0,-0.22324 0.148828,-0.34726 0.148828,-0.14883 0.520899,-0.14883 z" />
          </g>
        </g>
      </g>
    </g>
  </g>
</svg>
