<?xml version="1.0" encoding="UTF-8" standalone="no"?>
<!-- Created with Inkscape (http://www.inkscape.org/) -->

<svg
   xmlns:dc="http://purl.org/dc/elements/1.1/"
   xmlns:cc="http://creativecommons.org/ns#"
   xmlns:rdf="http://www.w3.org/1999/02/22-rdf-syntax-ns#"
   xmlns:svg="http://www.w3.org/2000/svg"
   xmlns="http://www.w3.org/2000/svg"
   xmlns:sodipodi="http://sodipodi.sourceforge.net/DTD/sodipodi-0.dtd"
   xmlns:inkscape="http://www.inkscape.org/namespaces/inkscape"
   width="1300"
   height="300"
   viewBox="0 0 343.95834 79.374999"
   version="1.1"
   id="svg8"
   inkscape:version="0.92.4 (5da689c313, 2019-01-14)"
   sodipodi:docname="logo.svg">
  <defs
     id="defs2" />
  <sodipodi:namedview
     id="base"
     pagecolor="#ffffff"
     bordercolor="#666666"
     borderopacity="1.0"
     inkscape:pageopacity="0.0"
     inkscape:pageshadow="2"
     inkscape:zoom="0.98994949"
     inkscape:cx="686.93265"
     inkscape:cy="293.02403"
     inkscape:document-units="px"
     inkscape:current-layer="g931"
     showgrid="false"
     inkscape:pagecheckerboard="true"
     units="px"
     showguides="false"
     fit-margin-top="0"
     fit-margin-left="0"
     fit-margin-right="0"
     fit-margin-bottom="0"
     inkscape:window-width="1920"
     inkscape:window-height="1027"
     inkscape:window-x="-8"
     inkscape:window-y="-8"
     inkscape:window-maximized="1" />
  <metadata
     id="metadata5">
    <rdf:RDF>
      <cc:Work
         rdf:about="">
        <dc:format>image/svg+xml</dc:format>
        <dc:type
           rdf:resource="http://purl.org/dc/dcmitype/StillImage" />
        <dc:title></dc:title>
      </cc:Work>
    </rdf:RDF>
  </metadata>
  <g
     inkscape:label="Layer 1"
     inkscape:groupmode="layer"
     id="layer1"
     transform="translate(0.396875,-218.02189)">
    <g
       id="g944">
      <g
         id="g840">
        <g
           id="g882">
          <g
             aria-label=" Fine"
             style="font-style:normal;font-variant:normal;font-weight:normal;font-stretch:normal;font-size:50.79999924px;line-height:1.25;font-family:'Henny Penny';-inkscape-font-specification:'Henny Penny';letter-spacing:0px;word-spacing:0px;fill:#439dd9;fill-opacity:1;stroke:#000000;stroke-width:0.79374999;stroke-miterlimit:4;stroke-dasharray:none;stroke-opacity:1"
             id="text877" />
          <g
             id="g931">
            <g
               id="g865"
               transform="translate(-5.3000005e-7,1.0134615e-5)">
              <g
                 id="g847">
                <g
                   id="text839"
                   style="font-style:normal;font-variant:normal;font-weight:normal;font-stretch:normal;font-size:50.79999924px;line-height:1.25;font-family:'Henny Penny';-inkscape-font-specification:'Henny Penny';letter-spacing:0px;word-spacing:0px;fill:#dd5b2b;fill-opacity:1;stroke:#000000;stroke-width:0.79374999;stroke-miterlimit:4;stroke-dasharray:none;stroke-opacity:1"
                   aria-label="Edith ">
                  <path
                     id="path884"
                     style="fill:#439dd9;fill-opacity:1;stroke-width:1.0583334;stroke-miterlimit:4;stroke-dasharray:none"
                     d="m 25.708309,235.29472 q 0.387574,0 0.516765,0.18086 0.155029,0.18087 0.155029,0.54261 0,0.46509 -0.07751,1.05936 -0.05168,0.59428 -0.129191,1.49862 -0.07751,0.8785 -0.155029,2.14457 -0.05168,1.24024 -0.05168,3.02307 0,0.3359 -0.103352,0.59428 -0.103353,0.25839 -0.387574,0.25839 -0.413411,0 -0.56844,-0.85267 -0.129192,-0.5426 -0.232544,-1.36942 -0.07751,-0.85266 -0.258383,-2.06706 -0.129191,-0.98185 -0.439249,-1.52445 -0.284221,-0.54261 -0.72347,-0.80099 -0.413412,-0.25838 -0.904338,-0.31006 -0.490926,-0.0517 -0.981852,-0.0517 -1.007691,0 -2.32544,0.10335 -1.291911,0.0775 -2.532145,0.20671 -1.240234,0.10335 -2.247925,0.23254 -0.981852,0.12919 -1.369425,0.23254 -0.826823,0.20671 -1.033529,0.69764 -0.180867,0.46508 -0.180867,1.11104 0,0.56844 0.02584,1.65364 0.02584,1.05937 0.07751,2.45464 0.05168,1.36942 0.129192,2.97139 0.07751,1.57613 0.129191,3.1781 0.07751,1.60197 0.129191,3.10059 0.07751,1.49861 0.129191,2.68717 0.568441,0.0775 1.291911,0.15503 0.749308,0.0517 1.472778,0.0517 0.852661,0 1.421102,-0.10336 0.594279,-0.12919 0.981852,-0.33589 0.413412,-0.20671 0.645956,-0.49093 0.232543,-0.31006 0.387573,-0.67179 0.155029,-0.38758 0.206706,-0.74931 0.07751,-0.36174 0.155029,-0.82682 0.07751,-0.49093 0.232544,-0.64596 0.155029,-0.15503 0.310058,-0.15503 0.361735,0 0.361735,0.64596 0,0.56844 -0.07751,1.39526 -0.05168,0.82682 -0.129191,1.73116 -0.07752,0.90434 -0.15503,1.83451 -0.05168,0.93018 -0.05168,1.70533 0,0.69763 0,1.39526 0.02584,0.69763 0.05168,1.29191 0.02584,0.59428 0.02584,1.05937 0.02584,0.46509 0.02584,0.69763 0,0.36174 -0.15503,0.69763 -0.129191,0.31006 -0.490926,0.31006 -0.594279,0 -0.671793,-1.05937 -0.02584,-0.25838 -0.05168,-0.72347 0,-0.46508 -0.02584,-0.98185 -0.02584,-0.51676 -0.103353,-1.03353 -0.05168,-0.51676 -0.155029,-0.8785 -0.129191,-0.43925 -0.465088,-0.85266 -0.335897,-0.43925 -1.059367,-0.67179 -0.310058,-0.10335 -0.775146,-0.18087 -0.43925,-0.0775 -0.981853,-0.12919 -0.516764,-0.0517 -1.085205,-0.0775 -0.542602,-0.0517 -1.033528,-0.0775 0.07751,1.29191 0.180867,3.20394 0.129191,1.88619 0.258382,4.00492 0.15503,2.0929 0.310059,4.23747 0.155029,2.14457 0.28422,3.92741 0.129191,1.78284 0.206706,3.02307 0.103353,1.2144 0.155029,1.49862 0.103353,1.05936 0.542603,1.55029 0.43925,0.49093 1.395264,0.62012 1.033528,0.15503 2.506307,0.15503 1.963704,0 3.462321,-0.20671 1.498616,-0.2067 2.60966,-0.72347 1.111043,-0.51676 1.886189,-1.39526 0.775147,-0.85266 1.291911,-2.17041 0.284221,-0.69763 0.465088,-1.36943 0.206706,-0.69763 0.335897,-1.24023 0.155029,-0.54261 0.28422,-0.8785 0.129191,-0.3359 0.284221,-0.3359 0.206705,0 0.28422,0.49093 0.103353,0.46509 0.103353,1.11104 0,0.93018 -0.103353,2.06706 -0.07751,1.11104 -0.232544,2.19625 -0.155029,1.0852 -0.361735,2.01538 -0.180867,0.93017 -0.361735,1.44694 -0.335897,0.82682 -0.904338,1.13688 -0.56844,0.3359 -1.524454,0.3359 -0.826823,0 -2.247925,-0.15503 -1.421102,-0.12919 -3.281454,-0.3359 -1.834513,-0.18087 -3.979085,-0.38757 -2.118734,-0.20671 -4.366659,-0.3359 -1.73116,-0.10335 -3.3072915,-0.15503 -1.550293,-0.0517 -2.8422038,-0.0775 -1.2919108,-0.0258 -2.2479249,-0.0258 -0.956014,0 -1.4986165,0 -0.7234701,0 -0.9560141,-0.20671 -0.20670569,-0.18087 -0.20670569,-0.49092 0,-0.38758 0.28422039,-0.54261 0.2842204,-0.15503 0.7234701,-0.15503 0.2842203,0 0.956014,0.0517 0.6976318,0.0775 1.6794841,0.0775 0.3358968,0 0.6717936,-0.0258 0.361735,0 0.7751465,-0.0517 0.9301758,-0.0258 1.4211019,-0.3359 0.5167644,-0.28422 0.7493083,-0.69763 0.232544,-0.38757 0.2583822,-0.82682 0.051676,-0.43925 0.051676,-0.77515 -0.051676,-2.5063 -0.2842204,-5.34851 -0.2067057,-2.86804 -0.4650879,-5.58105 -0.2325439,-2.71302 -0.4909261,-4.98678 -0.2325439,-2.27376 -0.361735,-3.61735 -0.077515,-0.8785 -0.2067058,-2.0929 -0.129191,-1.24023 -0.3100586,-2.63549 -0.1550293,-1.39527 -0.361735,-2.84221 -0.1808675,-1.47278 -0.3875732,-2.8422 -0.1808676,-1.39526 -0.3875733,-2.58382 -0.1808675,-1.18856 -0.3358968,-2.01538 -0.2067057,-1.00769 -0.4650879,-1.73116 -0.232544,-0.72347 -0.5167643,-1.26608 -0.2842204,-0.5426 -0.6201172,-0.93017 -0.3100586,-0.38758 -0.6976319,-0.6718 -0.2842204,-0.23254 -0.6717936,-0.43925 -0.3875733,-0.23254 -0.7493083,-0.43925 -0.33589684,-0.2067 -0.56844079,-0.38757 -0.23254395,-0.2067 -0.23254395,-0.43925 0,-0.41341 0.69763185,-0.41341 0.36173499,0 1.00769049,0.10335 0.6459554,0.0775 1.6019694,0.18087 0.9818522,0.10335 2.2996013,0.20671 1.3435873,0.0775 3.0747478,0.0775 1.3435876,0 3.0230716,-0.12919 1.679484,-0.15503 3.436483,-0.3359 1.782837,-0.2067 3.513997,-0.43925 1.731161,-0.25838 3.152263,-0.43925 1.421102,-0.2067 2.377116,-0.33589 0.981852,-0.15503 1.240234,-0.15503 z"
                     inkscape:connector-curvature="0" />
                  <path
                     id="path886"
                     style="fill:#439dd9;fill-opacity:1;stroke-width:1.0583334;stroke-miterlimit:4;stroke-dasharray:none"
                     d="m 52.864274,225.26949 q 0.206706,0 0.258383,0.38757 0.07751,0.36174 0.07751,1.00769 0,2.01538 -0.05168,4.36666 -0.02584,2.32544 -0.07751,4.88342 -0.05168,2.53215 -0.129191,5.21932 -0.05168,2.66134 -0.129191,5.32268 -0.07751,3.74654 -0.155029,7.31221 -0.07752,3.56568 -0.129191,6.56291 -0.05168,2.97139 -0.103353,5.19348 -0.02584,2.22209 -0.02584,3.30729 0,1.24024 0.206706,2.04122 0.206706,0.80099 0.542603,1.31775 0.335897,0.49093 0.775146,0.74931 0.465088,0.25838 0.956014,0.43925 0.645956,0.23254 1.240235,0.3359 0.620117,0.0775 1.085205,0.12919 0.465088,0.0517 0.72347,0.15503 0.28422,0.10335 0.28422,0.38757 0,0.38757 -0.568441,0.49093 -0.542602,0.10335 -1.162719,0.10335 -0.8785,0 -2.428793,-0.12919 -1.550293,-0.15503 -3.565674,-0.15503 -0.981852,0 -1.963704,0.10335 -0.981852,0.10335 -2.092896,0.23254 -1.085205,0.10336 -2.402954,0.20671 -1.291911,0.10335 -2.945556,0.10335 -2.32544,0 -4.366659,-0.56844 -2.041219,-0.56844 -3.565674,-1.78283 -1.524455,-1.24024 -2.402954,-3.1781 -0.8785,-1.96371 -0.8785,-4.7284 0,-2.45463 0.8785,-4.36666 0.904337,-1.93786 2.428792,-3.25561 1.550293,-1.31775 3.591512,-2.01538 2.067058,-0.69764 4.366659,-0.69764 2.402954,0 4.004924,0.38758 1.627807,0.38757 2.609659,0.77514 0,-2.48046 -0.05168,-5.03845 -0.05168,-2.58382 -0.129191,-5.01261 -0.05168,-2.45463 -0.129191,-4.62504 -0.05168,-2.17041 -0.129191,-3.82406 -0.05168,-1.65364 -0.103353,-2.68717 -0.05168,-1.03353 -0.05168,-1.18856 -0.02584,-0.38757 -0.07751,-0.74931 -0.02584,-0.38757 -0.129191,-0.67179 -0.07751,-0.31006 -0.258382,-0.46509 -0.180868,-0.18087 -0.490927,-0.18087 -0.387573,0 -0.878499,0.18087 -0.490926,0.15503 -1.00769,0.36173 -0.490926,0.18087 -0.981853,0.36174 -0.490926,0.15503 -0.878499,0.15503 -0.232544,0 -0.43925,-0.0775 -0.206705,-0.10335 -0.206705,-0.38757 0,-0.3359 0.232544,-0.5426 0.258382,-0.20671 0.72347,-0.41341 0.335896,-0.15503 0.775146,-0.28422 0.43925,-0.15503 1.059367,-0.41342 0.645955,-0.28422 1.524455,-0.69763 0.878499,-0.43925 2.092895,-1.16272 1.188558,-0.69763 1.989543,-1.29191 0.826823,-0.59428 1.343587,-1.03353 0.542603,-0.43925 0.826823,-0.69763 0.310059,-0.25838 0.490926,-0.25838 z m -4.909261,42.76225 q 0,-1.13688 -0.02584,-2.45463 0,-1.34359 -0.02584,-2.71302 0,-1.39526 -0.05168,-2.76468 -0.02584,-1.36943 -0.05168,-2.58383 -0.800985,-0.41341 -1.963705,-0.67179 -1.162719,-0.28422 -2.583821,-0.28422 -1.731161,0 -3.04891,0.59428 -1.317749,0.59428 -2.222086,1.67948 -0.904338,1.08521 -1.369426,2.60966 -0.465088,1.52446 -0.465088,3.41065 0,2.01538 0.43925,3.66902 0.439249,1.62781 1.291911,2.79053 0.878499,1.16272 2.196248,1.80868 1.317749,0.62011 3.074748,0.62011 1.498616,0 2.45463,-0.46508 0.981853,-0.49093 1.498617,-1.2144 0.516764,-0.72347 0.671794,-1.73116 0.180867,-1.00769 0.180867,-2.2996 z"
                     inkscape:connector-curvature="0" />
                  <path
                     id="path888"
                     style="fill:#439dd9;fill-opacity:1;stroke-width:1.0583334;stroke-miterlimit:4;stroke-dasharray:none"
                     d="m 65.111591,236.27657 q 1.524455,0 2.428792,0.80098 0.904338,0.80099 0.904338,2.27377 0,0.98185 -0.310059,1.65364 -0.310058,0.64596 -0.800984,1.05937 -0.490926,0.38757 -1.085205,0.56844 -0.568441,0.15503 -1.136882,0.15503 -0.490926,0 -1.033529,-0.15503 -0.542602,-0.15503 -1.00769,-0.51676 -0.465088,-0.38758 -0.775147,-0.98186 -0.28422,-0.62011 -0.28422,-1.52445 0,-0.95601 0.310059,-1.57613 0.310058,-0.64596 0.775146,-1.03353 0.465088,-0.38757 1.007691,-0.5426 0.542602,-0.18087 1.00769,-0.18087 z m 3.669027,8.47493 q 0.258382,0 0.258382,0.59428 0,0.38758 -0.103353,1.29191 -0.07752,0.8785 -0.206706,1.88619 -0.206705,1.60197 -0.413411,3.56568 -0.206706,1.93786 -0.413412,4.00492 -0.180867,2.04122 -0.361735,4.0566 -0.155029,2.01538 -0.28422,3.74654 -0.129191,1.70533 -0.206706,3.02307 -0.07751,1.29192 -0.07751,1.91203 0,0.80099 0.103352,1.31775 0.103353,0.51677 0.258383,0.85266 0.155029,0.3359 0.335896,0.54261 0.206706,0.2067 0.413412,0.36173 0.232544,0.15503 0.568441,0.28422 0.335897,0.12919 0.72347,0.25838 0.387573,0.10336 0.775146,0.18087 0.413412,0.0775 0.749309,0.10335 0.542602,0.10336 0.878499,0.15503 0.335897,0.0517 0.335897,0.3359 0,0.51676 -1.111044,0.51676 -0.775146,0 -1.550293,-0.10335 -0.775146,-0.12919 -1.601969,-0.28422 -0.800985,-0.15503 -1.679484,-0.25838 -0.878499,-0.12919 -1.88619,-0.12919 -0.930176,0 -1.679484,0.0517 -0.749308,0.0517 -1.369426,0.12919 -0.620117,0.0775 -1.162719,0.1292 -0.542603,0.0517 -1.085205,0.0517 -0.43925,0 -0.800985,-0.10335 -0.361735,-0.12919 -0.361735,-0.49093 0,-0.36173 0.387573,-0.49092 0.413412,-0.15503 0.826823,-0.23255 0.516764,-0.10335 1.007691,-0.23254 0.490926,-0.12919 0.878499,-0.38757 0.413411,-0.28422 0.671794,-0.72347 0.28422,-0.46509 0.361735,-1.18856 0.103352,-1.4211 0.155029,-2.89388 0.05168,-1.47278 0.07751,-2.89388 0.02584,-1.44694 0.02584,-2.79053 0,-1.36943 0,-2.55798 0,-1.42111 0,-2.58382 0,-1.18856 -0.05168,-2.01539 -0.05168,-1.31774 -0.310058,-2.06705 -0.232544,-0.74931 -0.697632,-1.11105 -0.43925,-0.36173 -1.136882,-0.46508 -0.697632,-0.1292 -1.679484,-0.20671 -0.28422,-0.0517 -0.465088,-0.18087 -0.155029,-0.12919 -0.155029,-0.41341 0,-0.49093 0.775147,-0.56844 0.387573,-0.0258 0.981852,-0.0775 0.594279,-0.0775 1.369425,-0.20671 0.800985,-0.12919 1.731161,-0.36174 0.930176,-0.25838 1.963704,-0.69763 1.136882,-0.46509 1.860352,-0.93017 0.749308,-0.46509 1.214396,-0.82683 0.465088,-0.38757 0.72347,-0.62011 0.258382,-0.25839 0.43925,-0.25839 z"
                     inkscape:connector-curvature="0" />
                  <path
                     id="path890"
                     style="fill:#439dd9;fill-opacity:1;stroke-width:1.0583334;stroke-miterlimit:4;stroke-dasharray:none"
                     d="m 97.926123,220.87699 q 0.775147,0 0.775147,1.60197 0,0.56844 -0.02584,1.47278 0,0.90434 -0.07752,2.50631 -0.07751,1.60197 -0.232544,4.10827 -0.129191,2.48047 -0.387573,6.20118 l -0.490926,7.02799 q 0.645955,0 1.136881,-0.0258 0.490926,-0.0258 0.8785,-0.0258 1.085202,0 1.498612,0.25839 0.41341,0.23254 0.41341,0.7493 0,0.51677 -0.41341,0.80099 -0.38757,0.25838 -1.007686,0.31006 -0.413412,0.0517 -1.059367,0.0517 -0.645956,0 -1.550293,0 -0.129191,1.78284 -0.180868,3.04891 -0.05168,1.24024 -0.103353,2.32544 -0.02584,1.05937 -0.07751,2.14458 -0.02584,1.05936 -0.103353,2.48046 0.516764,-1.11104 1.343587,-2.17041 0.826823,-1.0852 1.963703,-1.91202 1.13689,-0.85267 2.60966,-1.36943 1.47278,-0.51676 3.28146,-0.51676 2.76469,0 4.78007,0.90433 2.04122,0.90434 3.3848,2.60966 1.34359,1.70533 1.98955,4.13412 0.64595,2.42879 0.64595,5.4777 0,2.68717 -0.41341,5.40019 -0.38757,2.68717 -0.85266,5.19348 -0.46509,2.50631 -0.8785,4.65088 -0.38757,2.14457 -0.38757,3.69486 0,1.26608 0.33589,2.27377 0.36174,1.00769 1.24024,1.91202 0.5426,0.59428 0.95601,0.93018 0.43925,0.3359 0.69763,0.5426 0.28422,0.23255 0.41342,0.36174 0.15503,0.15503 0.15503,0.38757 0,0.15503 -0.15503,0.28422 -0.1292,0.12919 -0.49093,0.12919 -0.64596,0 -1.49862,-0.33589 -0.85266,-0.3359 -1.86035,-0.77515 -1.00769,-0.43925 -2.14457,-0.8785 -1.11104,-0.43925 -2.32544,-0.64596 -1.60197,-0.28422 -3.30729,-0.36173 -1.70532,-0.0775 -3.41065,-0.0775 -1.47277,0 -1.47277,-0.67179 0,-0.31006 0.31005,-0.46509 0.3359,-0.15503 0.82683,-0.25838 0.51676,-0.10335 1.16272,-0.23254 0.64595,-0.12919 1.29191,-0.38758 0.64595,-0.25838 1.21439,-0.59428 0.59428,-0.33589 1.08521,-0.85266 0.51676,-0.51676 0.90434,-1.26607 0.41341,-0.72347 0.72347,-1.73116 0.28422,-1.03353 0.62011,-2.68717 0.36174,-1.67949 0.6718,-3.82406 0.31006,-2.14457 0.51676,-4.65088 0.20671,-2.53214 0.20671,-5.271 0,-2.55798 -0.31006,-4.5992 -0.28422,-2.06706 -1.00769,-3.48816 -0.69763,-1.44694 -1.88619,-2.22208 -1.18856,-0.77515 -2.99723,-0.77515 -1.57614,0 -2.73886,0.59428 -1.16272,0.59428 -2.01538,1.52445 -0.826822,0.93018 -1.395263,2.0929 -0.542603,1.13688 -0.8785,2.24792 -0.335896,1.11105 -0.516764,2.06706 -0.155029,0.95602 -0.232544,1.49862 -0.129191,0.82682 -0.258382,2.01538 -0.103353,1.18856 -0.206706,2.55798 -0.07751,1.34359 -0.129191,2.79053 -0.05168,1.4211 -0.05168,2.73885 0,0.67179 0,1.24023 0,0.56845 0.05168,1.13689 2.118734,-0.12919 3.488159,-0.69764 1.395271,-0.59427 2.196251,-1.36942 0.82682,-0.80099 1.13688,-1.70532 0.3359,-0.90434 0.3359,-1.67949 0,-0.8785 -0.38757,-1.44694 -0.36174,-0.59428 -0.80099,-1.13688 -0.43925,-0.5426 -0.82682,-1.13688 -0.36174,-0.62012 -0.36174,-1.52446 0,-0.80098 0.25839,-1.39526 0.25838,-0.62012 0.69763,-1.03353 0.43925,-0.41341 1.00769,-0.59428 0.56844,-0.2067 1.16272,-0.2067 1.47278,0 2.35128,0.95601 0.90433,0.93018 0.90433,2.71301 0,0.74931 -0.15503,1.83452 -0.12919,1.0852 -0.5426,2.2996 -0.41341,1.18856 -1.16272,2.42879 -0.74931,1.2144 -1.98954,2.27376 -1.2144,1.03353 -2.9714,1.80868 -1.756998,0.74931 -4.159952,1.03353 0.07751,0.95601 0.542602,1.73116 0.490926,0.77515 1.136882,1.34359 0.645955,0.59428 1.317749,0.98185 0.697639,0.41341 1.162719,0.59428 0.80099,0.33589 1.34359,0.51676 0.56844,0.18087 0.56844,0.5426 0,0.20671 -0.25838,0.36174 -0.23254,0.18087 -0.90434,0.18087 -0.69763,0 -1.52445,-0.18087 -0.800991,-0.15503 -1.782843,-0.36174 -0.956014,-0.18086 -2.092895,-0.36173 -1.111044,-0.15503 -2.428793,-0.15503 -1.317749,0 -2.738851,0.23254 -1.395263,0.25839 -2.661336,0.54261 -1.266073,0.31006 -2.247925,0.5426 -0.981852,0.25838 -1.44694,0.25838 -0.43925,0 -0.43925,-0.25838 -0.02584,-0.23254 0.310059,-0.43925 0.335897,-0.20671 0.878499,-0.46509 0.542603,-0.23254 1.266073,-0.5426 0.72347,-0.31006 1.472778,-0.77515 1.266073,-0.74931 1.963705,-1.9637 0.72347,-1.2144 0.878499,-2.53215 -3.410645,-0.69763 -5.632731,-2.22208 -2.196249,-1.52446 -3.488159,-3.69487 -1.266073,-2.17041 -1.756999,-4.90926 -0.490926,-2.76469 -0.490926,-5.94279 0,-1.49862 0.129191,-3.12642 0.155029,-1.62781 0.310058,-3.12643 0.180868,-1.52445 0.310059,-2.79053 0.155029,-1.26607 0.155029,-2.06705 0,-0.95602 -0.28422,-1.42111 -0.258382,-0.49092 -1.136882,-0.49092 -0.749308,0 -1.524454,0.0775 -0.749309,0.0775 -1.524455,0.18087 -0.775147,0.10335 -1.524455,0.18087 -0.72347,0.0775 -1.369426,0.0775 -0.749308,0 -1.00769,-0.25838 -0.258382,-0.25838 -0.258382,-0.62012 0,-0.69763 1.00769,-0.85266 1.860352,-0.25838 3.229777,-0.51676 1.369426,-0.28422 2.428793,-0.59428 1.085205,-0.31006 1.937866,-0.67179 0.878499,-0.38758 1.705322,-0.8785 1.395264,-0.77515 2.377116,-1.83452 0.981853,-1.05936 1.679484,-2.01538 0.72347,-0.95601 1.214397,-1.60197 0.516764,-0.67179 0.930175,-0.67179 0.465088,0 0.465088,0.51676 0,0.49093 -0.232544,1.16272 -0.232544,0.64596 -0.542602,1.4211 -0.284221,0.74931 -0.516765,1.57614 -0.232544,0.80098 -0.232544,1.57613 0,0.67179 0.258383,1.16272 0.28422,0.46508 1.00769,0.62011 0.594279,0.1292 1.756999,0.15503 1.16272,0 2.842204,0 0.103353,-1.47277 0.206705,-2.94555 0.103353,-1.49862 0.180868,-2.79053 0.07752,-1.31775 0.103353,-2.35128 0.05168,-1.03353 0.05168,-1.57613 0,-1.00769 -0.05168,-1.91203 -0.05168,-0.90434 -0.258382,-1.65364 -0.180868,-0.77515 -0.542603,-1.36943 -0.361735,-0.59428 -1.00769,-0.95601 -0.542603,-0.31006 -1.498617,-0.38758 -0.930176,-0.0775 -1.834513,-0.0775 -0.800985,0 -1.731161,0.0258 -0.904337,0.0258 -1.395264,0.0258 -0.594279,0 -0.904337,-0.10336 -0.310059,-0.12919 -0.310059,-0.49092 0,-0.31006 0.387574,-0.41341 0.413411,-0.1292 1.162719,-0.20671 0.800985,-0.10335 1.60197,-0.23254 0.800984,-0.1292 1.627807,-0.3359 0.852662,-0.20671 1.705323,-0.51677 0.878499,-0.31005 1.782837,-0.77514 1.214396,-0.62012 2.067057,-1.31775 0.878499,-0.72347 1.498617,-1.29191 0.645955,-0.59428 1.085205,-0.98185 0.439249,-0.38758 0.800984,-0.38758 z m -12.867432,38.62814 q 0,2.27376 0.206706,4.52168 0.206706,2.22209 0.852661,4.13412 0.645956,1.91203 1.860352,3.33313 1.240234,1.4211 3.281453,2.04122 0.129192,-1.49862 0.284221,-3.59151 0.155029,-2.0929 0.310058,-4.41834 0.15503,-2.35128 0.310059,-4.72839 0.155029,-2.40296 0.28422,-4.52169 0.129191,-2.14457 0.206706,-3.82406 0.103353,-1.67948 0.180868,-2.55798 l 0.258382,-4.13411 q -1.317749,-0.0775 -2.506307,-0.0775 -1.188558,-0.0258 -1.989543,-0.0258 -0.749308,0 -1.240234,0.23255 -0.465088,0.2067 -0.749309,0.56844 -0.28422,0.33589 -0.439249,0.74931 -0.129191,0.38757 -0.206706,0.77514 -0.155029,0.6718 -0.335897,2.01538 -0.155029,1.34359 -0.28422,2.9714 -0.129191,1.62781 -0.206706,3.35897 -0.07752,1.70532 -0.07752,3.1781 z"
                     inkscape:connector-curvature="0" />
                </g>
                <path
                   id="path893"
                   style="font-style:normal;font-variant:normal;font-weight:normal;font-stretch:normal;font-size:50.79999924px;line-height:1.25;font-family:'Henny Penny';-inkscape-font-specification:'Henny Penny';letter-spacing:0px;word-spacing:0px;fill:#439dd9;fill-opacity:1;stroke:#000000;stroke-width:1.0583334;stroke-miterlimit:4;stroke-dasharray:none;stroke-opacity:1"
                   d="m 277.42151,231.06895 q 0.57051,0 0.94258,0.34726 0.39688,0.32247 0.39688,1.26504 0,0.66973 -0.17364,1.76114 -0.17363,1.0666 -0.39687,2.158 -0.22324,1.09141 -0.44648,2.00918 -0.19844,0.89297 -0.27286,1.24024 -0.0496,0.22324 -0.19843,0.76894 -0.12403,0.54571 -0.34727,1.21543 -0.19844,0.66973 -0.44648,1.38907 -0.22325,0.71933 -0.47129,1.31464 -0.24805,0.59532 -0.4961,0.99219 -0.22324,0.37207 -0.42168,0.37207 -0.12402,0 -0.22324,-0.12402 -0.0744,-0.12403 -0.0744,-0.5457 0,-0.42168 0.0744,-1.16583 0.0744,-0.76894 0.14883,-1.68671 0.0744,-0.94258 0.14883,-1.93477 0.0744,-1.01699 0.0744,-1.90996 0,-1.36426 -0.29765,-2.1332 -0.27286,-0.79375 -0.81856,-1.19063 -0.5209,-0.42168 -1.28984,-0.5209 -0.74414,-0.12402 -1.66192,-0.12402 -1.21543,0 -2.70371,0.17363 -1.46347,0.14883 -2.77812,0.4961 -1.09141,0.27285 -1.43867,0.94257 -0.32247,0.66973 -0.32247,1.73633 0,0.17364 0.0248,1.38906 0.0248,1.21543 0.0744,3.1254 0.0496,1.90996 0.0992,4.39043 0.0744,2.45566 0.14883,5.10976 0.69453,-0.0496 1.41387,-0.12402 0.71933,-0.0992 1.21543,-0.32246 0.5209,-0.22325 0.86816,-0.57051 0.37207,-0.37207 0.59531,-0.76895 0.22325,-0.42168 0.34727,-0.84336 0.14883,-0.42168 0.22324,-0.76894 0.39688,-1.5875 0.62012,-2.23242 0.22324,-0.66973 0.59531,-0.66973 0.47129,0 0.47129,0.91777 0,0.44649 -0.0992,1.06661 -0.0992,0.62011 -0.24805,1.41386 -0.12402,0.76895 -0.22324,1.71153 -0.0992,0.94257 -0.0992,2.00918 0,0.96738 0.0248,1.98437 0.0496,1.01699 0.0992,1.88516 0.0496,0.86816 0.0744,1.56269 0.0496,0.66973 0.0496,0.96738 0,0.84336 -0.17363,1.26504 -0.14883,0.42168 -0.42168,0.42168 -0.29766,0 -0.4961,-0.44648 -0.19843,-0.47129 -0.22324,-1.78594 -0.0248,-0.96738 -0.12402,-1.76113 -0.0744,-0.81856 -0.32246,-1.41387 -0.22324,-0.62012 -0.64492,-1.01699 -0.42168,-0.42168 -1.09141,-0.64492 -0.42168,-0.12403 -1.09141,-0.14883 -0.64492,-0.0496 -1.28984,-0.0496 0.0744,2.6541 0.14883,5.2834 0.0992,2.6293 0.17363,4.88652 0.0744,2.23242 0.14883,3.91914 0.0744,1.68672 0.12402,2.45567 0.0744,1.19062 0.29766,1.93476 0.22324,0.71934 0.59531,1.16582 0.37207,0.44649 0.86816,0.66973 0.4961,0.22324 1.14102,0.39687 0.22324,0.0744 0.49609,0.12403 0.27286,0.0496 0.5209,0.14883 0.27285,0.0992 0.44649,0.22324 0.17363,0.14883 0.17363,0.37207 0,0.22324 -0.14883,0.34726 -0.12402,0.12403 -0.34726,0.17364 -0.19844,0.0744 -0.44649,0.0744 -0.22324,0.0248 -0.44648,0.0248 -0.37207,0 -1.0418,-0.0992 -0.66973,-0.0744 -1.53789,-0.17364 -0.86816,-0.0744 -1.86035,-0.17363 -0.99219,-0.0744 -2.00918,-0.0744 -0.91777,0 -1.76113,0.0496 -0.84336,0.0744 -1.73633,0.14882 -0.89297,0.0992 -1.86035,0.14883 -0.96739,0.0744 -2.1084,0.0744 -0.69453,0 -1.11621,-0.0744 -0.42168,-0.0744 -0.64492,-0.19844 -0.22325,-0.0992 -0.29766,-0.24804 -0.0744,-0.14883 -0.0744,-0.29766 0,-0.57051 0.91778,-0.71933 0.22324,-0.0248 0.71933,-0.0744 0.4961,-0.0248 1.09141,-0.0744 0.62012,-0.0496 1.26504,-0.14883 0.64492,-0.0744 1.14102,-0.19844 0.52089,-0.14883 1.04179,-0.39687 0.5209,-0.27285 0.91778,-0.71934 0.39687,-0.47129 0.64492,-1.21543 0.24804,-0.76894 0.24804,-1.93476 0,-1.98438 -0.17363,-4.56407 -0.14883,-2.57968 -0.42168,-5.35781 -0.24805,-2.80293 -0.59531,-5.60586 -0.32246,-2.82773 -0.69453,-5.33301 -0.34727,-2.53007 -0.69453,-4.51445 -0.34727,-2.00918 -0.62012,-3.175 -0.22324,-0.94258 -0.64492,-1.51309 -0.42168,-0.59531 -0.96739,-0.91777 -0.52089,-0.34726 -1.16582,-0.49609 -0.62011,-0.17364 -1.28984,-0.27285 -0.71934,-0.12403 -1.16582,-0.32246 -0.42168,-0.19844 -0.42168,-0.64493 0,-0.42168 0.32246,-0.5705 0.34727,-0.14883 0.81856,-0.14883 2.10839,0 5.28339,-0.29766 3.175,-0.29766 7.19336,-1.21543 3.10059,-0.69453 5.18418,-1.31465 2.1084,-0.62011 3.52227,-1.0666 1.41387,-0.44648 2.30684,-0.69453 0.91777,-0.27285 1.6371,-0.27285 z"
                   inkscape:connector-curvature="0" />
                <path
                   id="path895"
                   style="font-style:normal;font-variant:normal;font-weight:normal;font-stretch:normal;font-size:50.79999924px;line-height:1.25;font-family:'Henny Penny';-inkscape-font-specification:'Henny Penny';letter-spacing:0px;word-spacing:0px;fill:#439dd9;fill-opacity:1;stroke:#000000;stroke-width:1.0583334;stroke-miterlimit:4;stroke-dasharray:none;stroke-opacity:1"
                   d="m 285.60706,234.04551 q 1.46348,0 2.33164,0.76895 0.86817,0.76894 0.86817,2.18281 0,0.94258 -0.29766,1.5875 -0.29766,0.62012 -0.76895,1.01699 -0.47129,0.37207 -1.04179,0.5457 -0.54571,0.14883 -1.09141,0.14883 -0.47129,0 -0.99219,-0.14883 -0.5209,-0.14882 -0.96738,-0.49609 -0.44648,-0.37207 -0.74414,-0.94258 -0.27285,-0.59531 -0.27285,-1.46347 0,-0.91778 0.29765,-1.51309 0.29766,-0.62012 0.74414,-0.99219 0.44649,-0.37207 0.96739,-0.5209 0.5209,-0.17363 0.96738,-0.17363 z m 3.52227,8.13594 q 0.24804,0 0.24804,0.57051 0,0.37207 -0.0992,1.24023 -0.0744,0.84336 -0.19843,1.81074 -0.19844,1.53789 -0.39688,3.42305 -0.19844,1.86035 -0.39687,3.84473 -0.17364,1.95957 -0.34727,3.89433 -0.14883,1.93477 -0.27285,3.59668 -0.12402,1.63711 -0.19844,2.90215 -0.0744,1.24023 -0.0744,1.83555 0,0.76894 0.0992,1.26504 0.0992,0.49609 0.24804,0.81855 0.14883,0.32246 0.32246,0.5209 0.19844,0.19844 0.39688,0.34726 0.22324,0.14883 0.5457,0.27286 0.32246,0.12402 0.69453,0.24804 0.37207,0.0992 0.74414,0.17364 0.39688,0.0744 0.71934,0.0992 0.5209,0.0992 0.84336,0.14883 0.32246,0.0496 0.32246,0.32246 0,0.4961 -1.0666,0.4961 -0.74414,0 -1.48828,-0.0992 -0.74414,-0.12402 -1.53789,-0.27285 -0.76895,-0.14883 -1.61231,-0.24805 -0.84336,-0.12402 -1.81074,-0.12402 -0.89297,0 -1.6123,0.0496 -0.71934,0.0496 -1.31465,0.12402 -0.59532,0.0744 -1.11621,0.12402 -0.5209,0.0496 -1.0418,0.0496 -0.42168,0 -0.76895,-0.0992 -0.34726,-0.12402 -0.34726,-0.47129 0,-0.34726 0.37207,-0.47128 0.39687,-0.14883 0.79375,-0.22325 0.49609,-0.0992 0.96738,-0.22324 0.47129,-0.12402 0.84336,-0.37207 0.39688,-0.27285 0.64492,-0.69453 0.27285,-0.44648 0.34727,-1.14102 0.0992,-1.36425 0.14883,-2.77812 0.0496,-1.41387 0.0744,-2.77813 0.0248,-1.38906 0.0248,-2.6789 0,-1.31465 0,-2.45567 0,-1.36425 0,-2.48046 0,-1.14102 -0.0496,-1.93477 -0.0496,-1.26504 -0.29766,-1.98438 -0.22324,-0.71933 -0.66973,-1.0666 -0.42168,-0.34726 -1.0914,-0.44648 -0.66973,-0.12402 -1.61231,-0.19844 -0.27285,-0.0496 -0.44648,-0.17363 -0.14883,-0.12402 -0.14883,-0.39688 0,-0.47129 0.74414,-0.5457 0.37207,-0.0248 0.94258,-0.0744 0.57051,-0.0744 1.31465,-0.19844 0.76894,-0.12402 1.66191,-0.34727 0.89297,-0.24804 1.88516,-0.66972 1.0914,-0.44649 1.78593,-0.89297 0.71934,-0.44649 1.16583,-0.79375 0.44648,-0.37207 0.69453,-0.59531 0.24804,-0.24805 0.42168,-0.24805 z"
                   inkscape:connector-curvature="0" />
                <path
                   id="path897"
                   style="font-style:normal;font-variant:normal;font-weight:normal;font-stretch:normal;font-size:50.79999924px;line-height:1.25;font-family:'Henny Penny';-inkscape-font-specification:'Henny Penny';letter-spacing:0px;word-spacing:0px;fill:#439dd9;fill-opacity:1;stroke:#000000;stroke-width:1.0583334;stroke-miterlimit:4;stroke-dasharray:none;stroke-opacity:1"
                   d="m 300.36585,241.88379 q 0.19844,0 0.39688,0.64492 0.19843,0.62012 0.39687,1.63711 0.19844,1.017 0.39688,2.35645 0.19843,1.31465 0.39687,2.67891 l 0.89297,6.25078 q 0.12402,-0.81856 0.42168,-1.88516 0.32246,-1.0666 0.84336,-2.20762 0.5209,-1.14101 1.26504,-2.23242 0.74414,-1.09141 1.71152,-1.95957 0.99219,-0.86816 2.20762,-1.38906 1.24023,-0.5457 2.75332,-0.5457 1.86035,0 3.22461,0.71933 1.36426,0.69453 2.25722,1.95957 0.89297,1.24024 1.31465,2.97656 0.42168,1.73633 0.42168,3.79512 0,1.86035 -0.22324,3.74551 -0.19844,1.86035 -0.44648,3.67109 -0.22325,1.81074 -0.44649,3.49746 -0.19844,1.68672 -0.19844,3.1502 0,0.86816 0.14883,1.51308 0.14883,0.64493 0.44649,1.19063 0.34726,0.5209 0.84336,0.91777 0.52089,0.37207 0.96738,0.71934 0.47129,0.32246 0.79375,0.66973 0.34726,0.32246 0.34726,0.69453 0,0.22324 -0.12402,0.37207 -0.12402,0.17363 -0.42168,0.17363 -0.44648,0 -0.99219,-0.34727 -0.52089,-0.32246 -1.31464,-0.81855 -0.76895,-0.5209 -1.86036,-1.09141 -1.0914,-0.59531 -2.6541,-1.0914 -1.16582,-0.39688 -2.35644,-0.62012 -1.16582,-0.22324 -2.72852,-0.29766 -0.86816,-0.0744 -0.86816,-0.49609 0,-0.47129 0.5705,-0.47129 0.34727,0 0.96739,0 0.62011,0 1.26504,-0.0496 0.99218,-0.0744 1.63711,-0.59531 0.64492,-0.5457 0.96738,-1.98438 0.0992,-0.5705 0.19844,-1.43867 0.0992,-0.89297 0.17363,-1.88515 0.0744,-1.017 0.12402,-2.05879 0.0496,-1.0418 0.0496,-1.98438 0,-0.84336 -0.0248,-1.93476 -0.0248,-1.11621 -0.17364,-2.30684 -0.12402,-1.19062 -0.42168,-2.33164 -0.27285,-1.14102 -0.81855,-2.03398 -0.5457,-0.89297 -1.38906,-1.43868 -0.84336,-0.5705 -2.05879,-0.5705 -1.0418,0 -1.90996,0.52089 -0.84336,0.5209 -1.51309,1.46348 -0.66972,0.91777 -1.14101,2.18281 -0.47129,1.26504 -0.71934,2.77813 -0.27285,1.53789 -0.37207,3.175 -0.0744,1.6123 -0.0744,3.22461 0,1.36426 0.0992,2.62929 0.0992,1.24024 0.27286,2.30684 0.17363,1.0418 0.42168,1.86035 0.24804,0.81856 0.5705,1.28985 0.47129,0.64492 1.017,0.96738 0.5457,0.32246 0.91777,0.44648 0.49609,0.14883 0.69453,0.27285 0.22324,0.0992 0.22324,0.29766 0,0.14883 -0.24804,0.27285 -0.22325,0.12403 -0.76895,0.12403 -0.5209,0 -1.14102,-0.0744 -0.62011,-0.0992 -1.28984,-0.19844 -0.66973,-0.0992 -1.38906,-0.17363 -0.71934,-0.0992 -1.41387,-0.0992 -0.69453,0 -1.41387,0.0496 -0.71933,0.0496 -1.38906,0.0992 -0.64492,0.0496 -1.19062,0.0992 -0.54571,0.0496 -0.86817,0.0496 -0.96738,0 -0.96738,-0.62012 0,-0.22324 0.14883,-0.37207 0.17363,-0.17363 0.59531,-0.22324 0.34727,-0.0248 0.62012,-0.0496 0.27285,-0.0248 0.5457,-0.0248 0.29766,-0.0248 0.59531,-0.0496 0.32246,-0.0248 0.74414,-0.0744 0.79375,-0.12402 1.06661,-0.57051 0.29765,-0.47129 0.29765,-1.26504 0,-1.36425 -0.24804,-3.32382 -0.22325,-1.95957 -0.62012,-4.31602 -0.39688,-2.35644 -0.96738,-4.98574 -0.54571,-2.6541 -1.16583,-5.40742 -0.29765,-1.41387 -0.69453,-2.1084 -0.37207,-0.69453 -1.0914,-0.69453 -0.37207,0 -0.76895,0.14883 -0.39687,0.12402 -0.79375,0.29765 -0.37207,0.14883 -0.71933,0.29766 -0.34727,0.12402 -0.64493,0.12402 -0.47128,0 -0.47128,-0.39687 0,-0.32246 0.24804,-0.44649 0.27285,-0.14883 0.57051,-0.27285 0.69453,-0.27285 1.48828,-0.69453 0.81856,-0.42168 1.76113,-1.14102 0.91778,-0.71933 1.63711,-1.53789 0.71934,-0.81855 1.24024,-1.51308 0.5209,-0.69453 0.84336,-1.14102 0.32246,-0.47129 0.49609,-0.47129 z"
                   inkscape:connector-curvature="0" />
                <path
                   id="path899"
                   style="font-style:normal;font-variant:normal;font-weight:normal;font-stretch:normal;font-size:50.79999924px;line-height:1.25;font-family:'Henny Penny';-inkscape-font-specification:'Henny Penny';letter-spacing:0px;word-spacing:0px;fill:#439dd9;fill-opacity:1;stroke:#000000;stroke-width:1.0583334;stroke-miterlimit:4;stroke-dasharray:none;stroke-opacity:1"
                   d="m 341.9137,260.68575 q 0.34727,0.5705 0.62012,1.53789 0.29766,0.96738 0.29766,1.95957 0,1.81074 -0.59532,3.24941 -0.59531,1.41387 -1.71152,2.40605 -1.11621,0.96739 -2.70371,1.48829 -1.5627,0.52089 -3.52227,0.52089 -2.82773,0 -5.06015,-0.94257 -2.20762,-0.96739 -3.72071,-2.67891 -1.51308,-1.71152 -2.30683,-4.06797 -0.79375,-2.38125 -0.79375,-5.20898 0,-2.55489 0.5457,-4.63848 0.5457,-2.08359 1.48828,-3.7207 0.94258,-1.63711 2.18281,-2.85254 1.24024,-1.21543 2.6293,-2.00918 1.38906,-0.79375 2.82774,-1.16582 1.43867,-0.39688 2.77812,-0.39688 1.31465,0 2.72852,0.34727 1.41386,0.34726 2.57968,1.19062 1.19063,0.84336 1.93477,2.23243 0.76894,1.36425 0.76894,3.44785 0,1.81074 -0.5457,3.175 -0.5209,1.36426 -1.38906,2.35644 -0.86816,0.99219 -1.98438,1.63711 -1.0914,0.64492 -2.25722,1.0418 -1.14102,0.37207 -2.25723,0.5209 -1.0914,0.14883 -1.93476,0.14883 -1.21543,0 -2.38125,-0.17364 -1.14102,-0.17363 -1.78594,-0.37207 0.0992,1.93477 0.59531,3.74551 0.5209,1.78594 1.46348,3.1502 0.94258,1.36425 2.33164,2.18281 1.41387,0.81855 3.29902,0.81855 1.31465,0 2.25723,-0.44648 0.96738,-0.44649 1.5875,-1.19063 0.62011,-0.76894 0.91777,-1.76113 0.29766,-0.99219 0.29766,-2.08359 0,-0.64493 -0.0992,-1.33946 -0.0744,-0.69453 -0.29766,-1.31464 -0.14883,-0.37208 -0.24804,-0.69454 -0.0992,-0.32246 -0.0992,-0.52089 0,-0.4961 0.44648,-0.4961 0.22324,0 0.5209,0.22324 0.32246,0.22325 0.59531,0.69454 z m -13.66738,-2.6045 q 0.64492,0.19844 1.46348,0.34727 0.81855,0.12402 2.05879,0.12402 1.43867,0 2.6541,-0.5457 1.21543,-0.5457 2.08359,-1.51309 0.86816,-0.99218 1.36426,-2.38125 0.49609,-1.38906 0.49609,-3.10058 0,-1.51309 -0.34726,-2.53008 -0.32246,-1.0418 -0.86817,-1.66191 -0.5457,-0.62012 -1.26504,-0.86817 -0.69453,-0.27285 -1.43867,-0.27285 -0.94258,0 -2.03398,0.57051 -1.09141,0.57051 -2.03399,1.98437 -0.91777,1.41387 -1.53789,3.81992 -0.59531,2.38125 -0.59531,6.02754 z"
                   inkscape:connector-curvature="0" />
                <g
                   id="text885"
                   style="font-style:normal;font-variant:normal;font-weight:normal;font-stretch:normal;font-size:50.79999924px;line-height:1.25;font-family:'Henny Penny';-inkscape-font-specification:'Henny Penny';letter-spacing:0px;word-spacing:0px;fill:#439dd9;fill-opacity:1;stroke:#000000;stroke-width:1.0583334;stroke-miterlimit:4;stroke-dasharray:none;stroke-opacity:1"
                   aria-label="H">
                  <path
                     id="path902"
                     style="fill:#439dd9;fill-opacity:1;stroke:#000000;stroke-width:1.0583334;stroke-miterlimit:4;stroke-dasharray:none;stroke-opacity:1"
                     d="m 131.73417,229.30545 q 0.44649,0 1.16582,0.24804 0.74414,0.24805 1.73633,0.62012 1.01699,0.34726 2.25723,0.74414 1.26504,0.37207 2.72851,0.66973 1.43868,0.29765 3.02618,0.49609 1.6123,0.17363 3.02617,0.29766 1.41386,0.0992 2.48047,0.17363 1.0914,0.0744 1.46347,0.0992 0.34727,0.0496 0.54571,0.14883 0.22324,0.0744 0.22324,0.32246 0,0.27285 -0.22324,0.37207 -0.22325,0.0744 -0.4961,0.0744 -0.5457,0 -1.6123,-0.0744 -1.0418,-0.0744 -2.20762,-0.0744 -0.86816,0 -1.53789,0.17364 -0.64492,0.14882 -1.09141,0.52089 -0.42168,0.37207 -0.66972,0.99219 -0.24805,0.59531 -0.29766,1.51309 -0.0496,0.5209 -0.0744,1.36426 0,0.81855 -0.0248,1.83554 0,1.01699 0,2.18281 0,1.14102 0,2.33165 0,1.43867 0,2.80293 0,1.36425 0,2.50527 0,1.14101 0,1.93476 0.0248,0.79375 0.0496,1.09141 0.0248,0.64492 0.14883,1.0418 0.12402,0.39687 0.34727,0.62011 0.22324,0.22325 0.52089,0.29766 0.29766,0.0744 0.66973,0.0744 0.69453,0 1.68672,-0.0496 0.99219,-0.0744 2.1084,-0.17364 1.14101,-0.0992 2.28203,-0.22324 1.14101,-0.14883 2.1084,-0.24805 0.99218,-0.12402 1.73633,-0.22324 0.74414,-0.0992 1.04179,-0.14883 0.84336,-0.14883 1.33946,-0.5705 0.49609,-0.42168 0.71933,-1.017 0.24805,-0.59531 0.29766,-1.33945 0.0744,-0.76895 0.0744,-1.5875 0,-1.11621 -0.0992,-2.28203 -0.0744,-1.19063 -0.19843,-2.25723 -0.12403,-1.0666 -0.27286,-1.93476 -0.12402,-0.86817 -0.19843,-1.31465 -0.14883,-0.96738 -0.44649,-1.48828 -0.29765,-0.54571 -0.66972,-0.79375 -0.34727,-0.27285 -0.74415,-0.32246 -0.37207,-0.0744 -0.66972,-0.0744 -0.84336,0 -1.73633,0.0496 -0.86816,0.0496 -1.36426,0.0496 -0.49609,0 -0.76894,-0.19844 -0.24805,-0.19843 -0.24805,-0.5209 0,-0.27285 0.19844,-0.52089 0.22324,-0.24805 1.01699,-0.29766 0.74414,-0.0248 1.66191,-0.0744 0.94258,-0.0744 1.95957,-0.17364 1.0418,-0.12402 2.1084,-0.27285 1.0666,-0.14883 2.1084,-0.37207 0.94258,-0.22324 2.00918,-0.5209 1.09141,-0.32246 2.1084,-0.59531 1.0418,-0.29766 1.93476,-0.49609 0.89297,-0.22325 1.46348,-0.22325 0.57051,0 0.71934,0.17364 0.14882,0.17363 0.14882,0.37207 0,0.34726 -0.29765,0.49609 -0.27285,0.12402 -0.62012,0.12402 -0.17363,0 -0.47129,0.0248 -0.29765,0.0248 -0.62011,0.0992 -0.32247,0.0496 -0.64493,0.14883 -0.32246,0.0992 -0.5457,0.27285 -0.39687,0.32246 -0.74414,0.89297 -0.32246,0.5457 -0.49609,1.66191 -0.12403,0.89297 -0.19844,2.25723 -0.0496,1.33945 -0.0992,2.82773 -0.0496,1.48828 -0.0992,2.97656 -0.0248,1.48829 -0.0496,2.65411 -0.0248,0.59531 -0.0744,1.76113 -0.0248,1.14101 -0.0496,2.6541 -0.0248,1.48828 -0.0744,3.27422 -0.0248,1.76113 -0.0496,3.59668 -0.0248,1.81074 -0.0496,3.64629 0,1.81074 0,3.39824 0,1.33945 0,2.45566 0,1.11621 0.0496,1.90996 0.0248,0.79375 0.19844,1.31465 0.19844,0.4961 0.44649,0.79375 0.24804,0.32246 0.52089,0.47129 0.29766,0.17363 0.54571,0.27285 0.5457,0.19844 1.16582,0.29766 0.62012,0.0992 1.33945,0.27285 0.34727,0.0744 0.44649,0.17363 0.0992,0.12403 0.0992,0.27286 0,0.0496 -0.0248,0.12402 -0.0248,0.0992 -0.12402,0.17363 -0.0744,0.0744 -0.27286,0.12403 -0.19843,0.0496 -0.5457,0.0496 -0.29765,0 -1.0666,-0.0744 -0.74414,-0.0496 -1.68672,-0.14883 -0.94258,-0.0744 -1.93476,-0.14883 -0.99219,-0.0496 -1.76114,-0.0496 -1.01699,0 -2.00918,0.0744 -0.99218,0.0992 -1.88515,0.19844 -0.89297,0.12402 -1.68672,0.19843 -0.79375,0.0992 -1.41387,0.0992 -1.0418,0 -1.33945,-0.27285 -0.29766,-0.24805 -0.29766,-0.5457 0,-0.39688 0.29766,-0.5209 0.32246,-0.0992 0.76894,-0.0992 1.41387,-0.0496 2.35645,-0.14883 0.96738,-0.0744 1.81074,-0.44648 0.62012,-0.29766 0.99219,-0.71934 0.39687,-0.39687 0.57051,-0.86816 0.19843,-0.4961 0.24804,-0.99219 0.0744,-0.5209 0.0744,-0.99219 0,-0.37207 -0.0496,-1.33945 -0.0496,-0.96738 -0.14883,-2.25723 -0.0744,-1.31464 -0.19844,-2.77812 -0.0992,-1.48828 -0.22324,-2.87734 -0.12402,-1.41387 -0.24805,-2.57969 -0.0992,-1.16582 -0.19843,-1.83555 -0.12403,-0.74414 -0.32247,-1.16582 -0.17363,-0.44648 -0.44648,-0.66973 -0.24805,-0.22324 -0.59531,-0.27285 -0.34727,-0.0744 -0.76895,-0.0744 -0.44648,0 -1.36426,0.0744 -0.89296,0.0744 -2.03398,0.19844 -1.11621,0.0992 -2.35644,0.24805 -1.21543,0.14882 -2.30684,0.29765 -1.0666,0.14883 -1.90996,0.29766 -0.84336,0.14883 -1.16582,0.27285 -0.47129,0.14883 -0.74414,0.39688 -0.27285,0.24804 -0.39688,0.5457 -0.12402,0.27285 -0.17363,0.59531 -0.0248,0.29766 -0.0496,0.59531 0,0.71934 0,1.95957 0.0248,1.24024 0.0248,2.75332 0.0248,1.48829 0.0496,3.1502 0.0248,1.63711 0.0248,3.175 0.0248,1.53789 0.0248,2.85254 0.0248,1.28984 0.0248,2.1084 0,1.16582 0.14883,1.88515 0.14882,0.71934 0.39687,1.14102 0.24805,0.44648 0.59531,0.69453 0.34727,0.27285 0.74414,0.49609 0.42168,0.22325 0.79375,0.39688 0.37207,0.19844 0.37207,0.5209 0,0.19843 -0.17363,0.27285 -0.14883,0.0744 -0.37207,0.0744 -0.5209,0 -1.0914,-0.14883 -0.54571,-0.14882 -1.28985,-0.32246 -0.74414,-0.14882 -1.78594,-0.29765 -1.01699,-0.14883 -2.45566,-0.14883 -1.48828,0 -2.75332,0.17363 -1.24023,0.17364 -2.23242,0.37207 -0.99219,0.22324 -1.71153,0.39688 -0.71933,0.17363 -1.16582,0.17363 -0.91777,0 -0.91777,-0.64492 0,-0.39688 0.19844,-0.57051 0.22324,-0.17363 0.57051,-0.29766 0.14882,-0.0496 0.49609,-0.12402 0.34727,-0.0744 0.81855,-0.17363 0.4961,-0.0744 1.06661,-0.19844 0.5705,-0.12402 1.16582,-0.27285 0.79375,-0.19844 1.24023,-0.5457 0.44649,-0.34727 0.64492,-0.79375 0.22325,-0.42168 0.27285,-0.91778 0.0496,-0.49609 0.0744,-0.99218 0,-0.14883 0.0248,-1.017 0.0248,-0.84336 0.0744,-2.1332 0.0496,-1.31465 0.0992,-2.97656 0.0496,-1.68672 0.0992,-3.47266 0.0496,-1.81074 0.0744,-3.59668 0.0248,-1.81074 0.0496,-3.42305 0,-0.37207 0,-1.21542 0.0248,-0.86817 0.0248,-2.05879 0,-1.19063 0,-2.65411 0.0248,-1.46347 0.0248,-3.05097 0,-2.1084 -0.0248,-4.29121 0,-2.18282 -0.0496,-4.06797 -0.0248,-1.90996 -0.0992,-3.34863 -0.0496,-1.43868 -0.14882,-2.05879 -0.0992,-0.71934 -0.27285,-1.26504 -0.17364,-0.57051 -0.47129,-1.01699 -0.29766,-0.44649 -0.71934,-0.81856 -0.39687,-0.37207 -0.96738,-0.71934 -0.54571,-0.32246 -1.0418,-0.5705 -0.49609,-0.24805 -0.89297,-0.44649 -0.37207,-0.19843 -0.59531,-0.39687 -0.22324,-0.22324 -0.22324,-0.47129 0,-0.22324 0.14883,-0.34727 0.14882,-0.14882 0.52089,-0.14882 z"
                     inkscape:connector-curvature="0" />
                </g>
                <g
                   id="text891"
                   style="font-style:normal;font-variant:normal;font-weight:normal;font-stretch:normal;font-size:50.79999924px;line-height:1.25;font-family:'Henny Penny';-inkscape-font-specification:'Henny Penny';letter-spacing:0px;word-spacing:0px;fill:#f3ce4c;fill-opacity:1;stroke:#000000;stroke-width:1.0583334;stroke-miterlimit:4;stroke-dasharray:none;stroke-opacity:1"
                   aria-label="ope">
                  <path
                     id="path905"
                     style="fill:#439dd9;fill-opacity:1;stroke:#000000;stroke-width:1.0583334;stroke-miterlimit:4;stroke-dasharray:none;stroke-opacity:1"
                     d="m 166.52578,258.42614 q 0,-2.77812 0.86817,-5.01055 0.86816,-2.25722 2.45566,-3.84472 1.5875,-1.5875 3.81992,-2.43086 2.25723,-0.86817 4.98575,-0.86817 2.45566,0 4.51445,0.81856 2.08359,0.81855 3.59668,2.35644 1.51308,1.51309 2.35644,3.6959 0.86817,2.15801 0.86817,4.86172 0,3.19981 -1.0666,5.48184 -1.0418,2.28203 -2.70371,3.74551 -1.63711,1.46347 -3.6711,2.158 -2.03398,0.66973 -3.99355,0.66973 -2.35645,0 -4.53926,-0.76895 -2.15801,-0.79375 -3.81992,-2.28203 -1.66192,-1.48828 -2.67891,-3.64629 -0.99219,-2.18281 -0.99219,-4.93613 z m 11.78223,-11.18691 q -1.41387,0 -2.45566,0.71933 -1.017,0.69453 -1.68672,1.90996 -0.66973,1.19063 -0.99219,2.80293 -0.29766,1.5875 -0.29766,3.34864 0,1.46347 0.17364,2.95175 0.17363,1.48829 0.5209,2.87735 0.37207,1.36426 0.89296,2.57969 0.54571,1.19062 1.28985,2.08359 0.74414,0.89297 1.68672,1.41387 0.96738,0.49609 2.1332,0.49609 1.51309,0 2.53008,-0.66973 1.04179,-0.69453 1.66191,-1.78593 0.62012,-1.11621 0.86817,-2.48047 0.27285,-1.38906 0.27285,-2.77813 0,-3.42304 -0.4961,-5.95312 -0.49609,-2.53008 -1.38906,-4.19199 -0.89297,-1.68672 -2.1084,-2.50528 -1.19062,-0.81855 -2.60449,-0.81855 z"
                     inkscape:connector-curvature="0" />
                  <path
                     id="path907"
                     style="fill:#439dd9;fill-opacity:1;stroke:#000000;stroke-width:1.0583334;stroke-miterlimit:4;stroke-dasharray:none;stroke-opacity:1"
                     d="m 201.72363,247.76013 q 0,0.34726 -0.0248,1.11621 -0.0248,0.76894 -0.0248,1.81074 0,0.59531 0,0.94258 0.0248,0.34726 0.0248,0.66972 0,0.32246 0,0.74414 0.0248,0.42168 0.0248,1.16582 0.79375,-1.0914 1.83555,-1.95957 0.44649,-0.37207 0.99219,-0.71933 0.5457,-0.34727 1.19062,-0.62012 0.66973,-0.27285 1.38907,-0.44648 0.74414,-0.17364 1.56269,-0.17364 1.78594,0 3.175,0.64493 1.38906,0.64492 2.33164,1.81074 0.96738,1.14101 1.46348,2.75332 0.49609,1.5875 0.49609,3.52226 0,2.90215 -0.76894,5.20899 -0.76895,2.30683 -2.0836,3.94394 -1.31464,1.61231 -3.07578,2.48047 -1.76113,0.86817 -3.77031,0.86817 -0.71934,0 -1.36426,-0.12403 -0.62012,-0.12402 -1.16582,-0.32246 -0.5457,-0.19844 -1.01699,-0.42168 -0.44648,-0.24804 -0.79375,-0.44648 -0.0248,1.01699 -0.0496,1.81074 0,0.76895 0,1.51309 0,0.74414 0,1.53789 0,0.79375 0,1.83554 0,1.68672 0.0248,3.72071 0.0496,2.03398 0.17364,3.96875 0.14883,1.95957 0.39687,3.57187 0.24805,1.61231 0.69453,2.40606 0.42168,0.76894 1.0418,1.21543 0.62012,0.44648 1.24024,0.71933 0.76894,0.34727 1.33945,0.69453 0.59531,0.34727 0.59531,0.71934 0,0.27285 -0.17363,0.44648 -0.17363,0.17364 -0.59531,0.17364 -0.66973,0 -1.88516,-0.22325 -1.19063,-0.19843 -2.60449,-0.44648 -1.38907,-0.24805 -2.77813,-0.47129 -1.38906,-0.19844 -2.43086,-0.19844 -1.11621,0 -1.86035,0.0744 -0.74414,0.0992 -1.56269,0.0992 -1.09141,0 -1.48829,-0.14883 -0.37207,-0.12403 -0.37207,-0.32246 0,-0.22325 0.24805,-0.29766 0.24805,-0.0744 0.66973,-0.14883 0.42168,-0.0744 0.94258,-0.24804 0.52089,-0.14883 1.0914,-0.5209 0.59531,-0.42168 0.94258,-1.0666 0.37207,-0.62012 0.57051,-1.38907 0.19844,-0.76894 0.27285,-1.6123 0.0744,-0.81856 0.12402,-1.61231 0.0496,-0.62011 0.0992,-1.90996 0.0496,-1.26504 0.0992,-2.97656 0.0496,-1.68672 0.0992,-3.6959 0.0744,-2.00918 0.12402,-4.14238 0.0496,-2.1332 0.0992,-4.2416 0.0496,-2.13321 0.0744,-4.04317 0.0248,-1.90996 0.0496,-3.49746 0.0248,-1.6123 0.0248,-2.6789 0,-1.5875 -0.0992,-2.6045 -0.0744,-1.04179 -0.27285,-1.6371 -0.19844,-0.62012 -0.5209,-0.84336 -0.32246,-0.24805 -0.79375,-0.24805 -0.37207,0 -0.79375,0.14883 -0.39687,0.14883 -0.81855,0.32246 -0.39688,0.14883 -0.74414,0.29765 -0.34727,0.14883 -0.57051,0.14883 -0.42168,0 -0.42168,-0.42168 0,-0.14883 0.14883,-0.34726 0.14882,-0.19844 0.76894,-0.4961 0.39688,-0.22324 0.94258,-0.44648 0.5457,-0.24805 1.16582,-0.5457 0.64492,-0.32247 1.31465,-0.74414 0.69453,-0.44649 1.36426,-1.06661 0.89296,-0.81855 1.43867,-1.46347 0.57051,-0.64492 0.91777,-1.0666 0.37207,-0.44649 0.57051,-0.66973 0.22324,-0.24805 0.42168,-0.24805 0.22324,0 0.27285,0.27285 0.0744,0.24805 0.0744,0.59532 z m 4.56407,4.96093 q -1.0666,0 -1.86035,0.4961 -0.76895,0.49609 -1.31465,1.31465 -0.54571,0.81855 -0.89297,1.86035 -0.32246,1.04179 -0.5209,2.15801 -0.19844,1.0914 -0.27285,2.158 -0.0496,1.0418 -0.0496,1.88516 0,1.31465 0.17363,2.6541 0.19844,1.31465 0.66973,2.38125 0.49609,1.0418 1.33945,1.71152 0.84336,0.66973 2.1332,0.66973 1.017,0 1.93477,-0.5209 0.94258,-0.5209 1.63711,-1.66191 0.71934,-1.16582 1.14102,-3.02617 0.42167,-1.88516 0.42167,-4.56407 0,-1.63711 -0.24804,-3.00136 -0.24805,-1.38907 -0.79375,-2.38125 -0.54571,-1.017 -1.41387,-1.5627 -0.86816,-0.57051 -2.08359,-0.57051 z"
                     inkscape:connector-curvature="0" />
                  <path
                     id="path909"
                     style="fill:#439dd9;fill-opacity:1;stroke:#000000;stroke-width:1.0583334;stroke-miterlimit:4;stroke-dasharray:none;stroke-opacity:1"
                     d="m 237.26875,260.50974 q 0.34727,0.5705 0.62012,1.53789 0.29765,0.96738 0.29765,1.95957 0,1.81074 -0.59531,3.24941 -0.59531,1.41387 -1.71152,2.40605 -1.11621,0.96739 -2.70371,1.48829 -1.5627,0.52089 -3.52227,0.52089 -2.82773,0 -5.06015,-0.94257 -2.20762,-0.96739 -3.72071,-2.67891 -1.51308,-1.71152 -2.30683,-4.06797 -0.79375,-2.38125 -0.79375,-5.20898 0,-2.55489 0.5457,-4.63848 0.5457,-2.08359 1.48828,-3.7207 0.94258,-1.63711 2.18281,-2.85254 1.24024,-1.21543 2.6293,-2.00918 1.38906,-0.79375 2.82774,-1.16582 1.43867,-0.39688 2.77812,-0.39688 1.31465,0 2.72852,0.34727 1.41386,0.34726 2.57968,1.19062 1.19063,0.84336 1.93477,2.23243 0.76894,1.36425 0.76894,3.44785 0,1.81074 -0.5457,3.175 -0.5209,1.36426 -1.38906,2.35644 -0.86817,0.99219 -1.98438,1.63711 -1.0914,0.64492 -2.25722,1.0418 -1.14102,0.37207 -2.25723,0.5209 -1.09141,0.14883 -1.93477,0.14883 -1.21542,0 -2.38125,-0.17364 -1.14101,-0.17363 -1.78593,-0.37207 0.0992,1.93477 0.59531,3.74551 0.5209,1.78594 1.46348,3.1502 0.94257,1.36425 2.33164,2.18281 1.41386,0.81855 3.29902,0.81855 1.31465,0 2.25723,-0.44648 0.96738,-0.44649 1.5875,-1.19063 0.62011,-0.76894 0.91777,-1.76113 0.29766,-0.99219 0.29766,-2.08359 0,-0.64493 -0.0992,-1.33946 -0.0744,-0.69453 -0.29766,-1.31464 -0.14883,-0.37208 -0.24805,-0.69454 -0.0992,-0.32246 -0.0992,-0.52089 0,-0.4961 0.44648,-0.4961 0.22324,0 0.5209,0.22324 0.32246,0.22325 0.59531,0.69454 z m -13.66738,-2.6045 q 0.64492,0.19844 1.46348,0.34727 0.81855,0.12402 2.05878,0.12402 1.43868,0 2.65411,-0.5457 1.21543,-0.5457 2.08359,-1.51309 0.86816,-0.99218 1.36426,-2.38125 0.49609,-1.38906 0.49609,-3.10058 0,-1.51309 -0.34726,-2.53008 -0.32247,-1.0418 -0.86817,-1.66191 -0.5457,-0.62012 -1.26504,-0.86817 -0.69453,-0.27285 -1.43867,-0.27285 -0.94258,0 -2.03398,0.57051 -1.09141,0.57051 -2.03399,1.98437 -0.91777,1.41387 -1.53789,3.81992 -0.59531,2.38125 -0.59531,6.02754 z"
                     inkscape:connector-curvature="0" />
                </g>
              </g>
            </g>
          </g>
        </g>
      </g>
    </g>
  </g>
</svg>
