<?xml version="1.0" encoding="UTF-8" standalone="no"?>
<!-- Created with Inkscape (http://www.inkscape.org/) -->

<svg
   xmlns:dc="http://purl.org/dc/elements/1.1/"
   xmlns:cc="http://creativecommons.org/ns#"
   xmlns:rdf="http://www.w3.org/1999/02/22-rdf-syntax-ns#"
   xmlns:svg="http://www.w3.org/2000/svg"
   xmlns="http://www.w3.org/2000/svg"
   xmlns:sodipodi="http://sodipodi.sourceforge.net/DTD/sodipodi-0.dtd"
   xmlns:inkscape="http://www.inkscape.org/namespaces/inkscape"
   width="500"
   height="500"
   viewBox="0 0 132.29167 132.29166"
   version="1.1"
   id="svg1005"
   inkscape:version="0.92.4 (5da689c313, 2019-01-14)"
   sodipodi:docname="bn2.svg">
  <defs
     id="defs999" />
  <sodipodi:namedview
     id="base"
     pagecolor="#ffffff"
     bordercolor="#666666"
     borderopacity="1.0"
     inkscape:pageopacity="0.0"
     inkscape:pageshadow="2"
     inkscape:zoom="1.4"
     inkscape:cx="396.07359"
     inkscape:cy="264.34745"
     inkscape:document-units="px"
     inkscape:current-layer="layer1"
     showgrid="false"
     units="px"
     inkscape:pagecheckerboard="true"
     fit-margin-top="0"
     fit-margin-left="0"
     fit-margin-right="0"
     fit-margin-bottom="0"
     inkscape:window-width="1920"
     inkscape:window-height="1027"
     inkscape:window-x="-8"
     inkscape:window-y="-8"
     inkscape:window-maximized="1" />
  <metadata
     id="metadata1002">
    <rdf:RDF>
      <cc:Work
         rdf:about="">
        <dc:format>image/svg+xml</dc:format>
        <dc:type
           rdf:resource="http://purl.org/dc/dcmitype/StillImage" />
        <dc:title />
      </cc:Work>
    </rdf:RDF>
  </metadata>
  <g
     inkscape:label="Layer 1"
     inkscape:groupmode="layer"
     id="layer1"
     transform="translate(-68.336838,-120.4815)">
    <g
       id="g841">
      <g
         id="g1447"
         transform="translate(2.3298563e-6,-1.6701437e-6)">
        <path
           style="opacity:0.75;fill:#000000;fill-opacity:0.33333333;fill-rule:nonzero;stroke:#000000;stroke-width:0.26458332;stroke-linecap:round;stroke-linejoin:round;stroke-miterlimit:4;stroke-dasharray:none;stroke-opacity:1;paint-order:fill markers stroke"
           d="m 98.052667,123.82939 h 74.684903 c 14.84903,0 26.8033,11.95427 26.8033,26.8033 v 73.64401 c 0,14.84902 -11.95427,26.8033 -26.8033,26.8033 H 98.052667 c -14.849026,0 -26.803297,-11.95428 -26.803297,-26.8033 v -73.64401 c 0,-14.84903 11.954271,-26.8033 26.803297,-26.8033 z"
           id="rect834-5"
           inkscape:connector-curvature="0" />
        <path
           style="opacity:1;fill:#ffffff;fill-opacity:1;fill-rule:nonzero;stroke:#000000;stroke-width:0.52916664;stroke-linecap:round;stroke-linejoin:round;stroke-miterlimit:4;stroke-dasharray:none;stroke-opacity:0.48627451;paint-order:fill markers stroke"
           d="m 96.360055,122.30696 h 74.684905 c 14.84903,0 26.8033,11.95427 26.8033,26.8033 v 73.64401 c 0,14.84902 -11.95427,26.80329 -26.8033,26.80329 H 96.360055 c -14.849026,0 -26.803297,-11.95427 -26.803297,-26.80329 v -73.64401 c 0,-14.84903 11.954271,-26.8033 26.803297,-26.8033 z"
           id="rect834"
           inkscape:connector-curvature="0" />
      </g>
      <g
         id="layer1-6"
         transform="matrix(1.2104729,0,0,1.2104729,86.44203,-124.84245)">
        <path
           id="path4942"
           transform="matrix(0.26458333,0,0,0.26458333,2.1605895,219.07812)"
           style="fill:#366251;stroke-width:6.67469406"
           d="m 236.94531,0 v 58.070312 c 0,28.701166 -5.3e-4,62.742158 1.33399,91.443358 C 236.94453,136.1643 232.93991,122.14666 228.26758,104.125 222.92774,86.77077 201.57031,2.0039062 201.57031,2.0039062 H 153.51172 V 69.953125 c 15.81951,2.268196 22.76691,14.455134 19.9043,28.195313 -1.5868,7.938292 -5.08009,15.240862 -13.33594,22.226562 -1.9405,1.72493 -4.18211,3.39935 -6.56836,5.01562 v 57.92774 c 3.15075,-6.53803 7.55027,-16.93582 11.9668,-25.47461 4.12767,-9.52577 10.79552,-15.24219 20.63867,-15.24219 7.57099,0 12.10673,2.93345 14.54492,6.51758 -0.30771,-5.10444 -0.65384,-10.55175 -1.0957,-16.95898 4.00482,20.02408 7.34354,36.04321 12.01562,49.39257 l -0.66797,-1.33593 32.03906,106.79492 h 40.71485 V 0 Z M 0,2.0039062 V 289.01562 h 64.076172 c 45.057778,0 71.483588,-20.49789 73.310548,-75.83398 -6.38631,4.01794 -13.64195,6.26172 -22.39453,6.26172 -12.98329,0 -25.157015,-5.35729 -30.892581,-16.92578 -0.02031,43.80667 -4.705013,53.12304 -20.023437,53.12304 H 50.726562 V 153.51953 H 61.40625 l 0.667969,0.66602 c 11.382699,0 17.309722,7.17984 20.041015,20.97265 4.407745,-14.87288 15.96591,-25.27129 29.296876,-34.0039 -5.46291,-3.29596 -11.530312,-4.99024 -17.966798,-4.99024 6.283752,-0.38084 11.858078,-2.17928 16.621098,-5.38476 -2.4377,-9.14731 -3.4726,-18.83138 -2.06055,-26.59766 C 110.18039,90.54207 118.6317,80.473712 128.76172,74.814453 127.78563,29.262128 113.6083,2.0039062 64.744141,2.0039062 Z M 58.736328,36.044922 c 16.68675,0 20.025391,13.349163 20.025391,46.722656 0,24.028912 -2.002192,37.376952 -15.351563,37.376952 H 50.060547 V 36.710938 h 10.011719 z m 94.775392,44.83789 v 33.863278 c 0.82183,-0.70893 1.54923,-1.38054 2.12305,-1.99023 h -0.31641 c 4.12767,-5.39788 5.39703,-9.5274 6.34961,-13.972657 1.71823,-8.837484 -1.88787,-15.37855 -8.15625,-17.900391 z m -25.02539,8.705079 c -2.31437,3.216854 -3.73746,6.881285 -3.96875,10.466799 -0.91189,4.42956 -1.22693,8.80494 -1.05078,13.19336 2.6318,-6.50575 4.33885,-14.392883 5.01953,-23.660159 z m -12.85938,59.046879 c -9.52578,8.25562 -16.510399,17.46482 -19.050778,33.02343 -1.904655,11.74859 5.397638,27.625 24.449218,27.625 6.67644,0 11.79138,-1.25674 16.44141,-4.73632 -0.0843,-5.70797 -0.46994,-11.0761 -1.13282,-16.09766 -8.55271,-13.48531 -15.13777,-26.65085 -20.70703,-39.81445 z m 66.99805,1.27148 c -5.71547,0 -9.52456,5.07991 -15.875,18.41602 l -9.52734,22.86132 1.90625,4.12891 c 6.35044,8.57318 12.06511,14.60547 19.05078,14.60547 3.81031,0 7.93855,-1.90463 14.28906,-8.25586 l 3.17383,4.44531 c -6.98574,8.57326 -15.87622,13.33594 -23.81446,13.33594 -6.8932,0 -13.11433,-4.49187 -18.3164,-9.5 v 79.07226 h 48.72461 v -73.42187 c 0,-23.11681 -0.0213,-35.59634 -0.85742,-53.26172 -1.34701,2.095 -3.52428,3.44922 -6.6875,3.44922 -10.4784,0 -2.22324,-15.875 -12.06641,-15.875 z"
           inkscape:connector-curvature="0" />
      </g>
    </g>
  </g>
</svg>
